<svg width="24" height="24" viewBox="0 0 24 24" fill="none" xmlns="http://www.w3.org/2000/svg">
<rect width="24" height="24" rx="4" fill="#363440"/>
<path d="M7.61777 18.991L7.62677 17.317L13.2698 12.259C13.7258 11.857 14.0348 11.473 14.1968 11.107C14.3648 10.741 14.4488 10.375 14.4488 10.009C14.4488 9.547 14.3468 9.133 14.1428 8.767C13.9388 8.395 13.6568 8.101 13.2968 7.885C12.9368 7.669 12.5228 7.561 12.0548 7.561C11.5748 7.561 11.1458 7.675 10.7678 7.903C10.3958 8.125 10.1048 8.422 9.89477 8.794C9.68477 9.166 9.58277 9.568 9.58877 10H7.66277C7.66277 9.16 7.85177 8.425 8.22977 7.795C8.61377 7.159 9.13877 6.664 9.80477 6.31C10.4708 5.95 11.2328 5.77 12.0908 5.77C12.9068 5.77 13.6388 5.956 14.2868 6.328C14.9348 6.694 15.4448 7.198 15.8168 7.84C16.1948 8.482 16.3838 9.214 16.3838 10.036C16.3838 10.63 16.3058 11.134 16.1498 11.548C15.9938 11.962 15.7598 12.346 15.4478 12.7C15.1358 13.054 14.7458 13.438 14.2778 13.852L9.92177 17.74L9.71477 17.2H16.3838V18.991H7.61777Z" fill="url(#paint0_linear_45_115)"/>
<defs>
<linearGradient id="paint0_linear_45_115" x1="1.3411e-07" y1="12" x2="24" y2="12" gradientUnits="userSpaceOnUse">
<stop stop-color="#807EEE"/>
<stop offset="1" stop-color="#4045C9"/>
</linearGradient>
</defs>
</svg>
