<svg width="24" height="24" viewBox="0 0 24 24" fill="none" xmlns="http://www.w3.org/2000/svg">
<rect width="24" height="24" rx="4" fill="#363440"/>
<path d="M11.7366 19.243C11.0946 19.243 10.4916 19.123 9.92761 18.883C9.36361 18.637 8.87461 18.289 8.46061 17.839C8.05261 17.389 7.75561 16.858 7.56961 16.246L9.38761 15.742C9.56161 16.3 9.86461 16.729 10.2966 17.029C10.7286 17.323 11.2086 17.467 11.7366 17.461C12.2106 17.455 12.6276 17.344 12.9876 17.128C13.3476 16.912 13.6296 16.621 13.8336 16.255C14.0376 15.883 14.1396 15.457 14.1396 14.977C14.1396 14.257 13.9146 13.663 13.4646 13.195C13.0206 12.727 12.4386 12.493 11.7186 12.493C11.5146 12.493 11.3046 12.523 11.0886 12.583C10.8786 12.643 10.6806 12.721 10.4946 12.817L9.61261 11.332L14.1846 7.291L14.3826 7.831H8.08261V6.04H15.8766V7.831L12.0786 11.485L12.0606 10.873C12.8766 10.873 13.5846 11.056 14.1846 11.422C14.7846 11.782 15.2466 12.274 15.5706 12.898C15.9006 13.516 16.0656 14.209 16.0656 14.977C16.0656 15.805 15.8706 16.54 15.4806 17.182C15.0966 17.824 14.5776 18.328 13.9236 18.694C13.2756 19.06 12.5466 19.243 11.7366 19.243Z" fill="url(#paint0_linear_45_122)"/>
<defs>
<linearGradient id="paint0_linear_45_122" x1="1.3411e-07" y1="12" x2="24" y2="12" gradientUnits="userSpaceOnUse">
<stop stop-color="#807EEE"/>
<stop offset="1" stop-color="#4045C9"/>
</linearGradient>
</defs>
</svg>
