<svg width="24" height="24" viewBox="0 0 24 24" fill="none" xmlns="http://www.w3.org/2000/svg">
<rect width="24" height="24" rx="4" fill="#363440"/>
<path d="M11.8559 19.27C11.1899 19.27 10.5689 19.135 9.99293 18.865C9.42293 18.589 8.93393 18.211 8.52593 17.731C8.11793 17.245 7.82693 16.687 7.65293 16.057L9.46193 15.571C9.56393 15.955 9.73793 16.288 9.98393 16.57C10.2359 16.852 10.5299 17.071 10.8659 17.227C11.2019 17.377 11.5499 17.452 11.9099 17.452C12.3839 17.452 12.8129 17.338 13.1969 17.11C13.5869 16.882 13.8929 16.576 14.1149 16.192C14.3429 15.808 14.4569 15.385 14.4569 14.923C14.4569 14.449 14.3399 14.02 14.1059 13.636C13.8779 13.252 13.5689 12.949 13.1789 12.727C12.7949 12.499 12.3719 12.385 11.9099 12.385C11.3819 12.385 10.9349 12.49 10.5689 12.7C10.2029 12.91 9.91793 13.153 9.71393 13.429L8.07593 12.853L8.47193 6.04H15.4649V7.813H9.43493L10.1999 7.102L9.88493 12.205L9.51593 11.728C9.85793 11.386 10.2659 11.125 10.7399 10.945C11.2139 10.765 11.6849 10.675 12.1529 10.675C12.9569 10.675 13.6739 10.861 14.3039 11.233C14.9399 11.605 15.4409 12.112 15.8069 12.754C16.1729 13.39 16.3559 14.113 16.3559 14.923C16.3559 15.727 16.1489 16.459 15.7349 17.119C15.3209 17.773 14.7719 18.295 14.0879 18.685C13.4039 19.075 12.6599 19.27 11.8559 19.27Z" fill="url(#paint0_linear_45_149)"/>
<defs>
<linearGradient id="paint0_linear_45_149" x1="1.3411e-07" y1="12" x2="24" y2="12" gradientUnits="userSpaceOnUse">
<stop stop-color="#807EEE"/>
<stop offset="1" stop-color="#4045C9"/>
</linearGradient>
</defs>
</svg>
