<svg width="16" height="20" viewBox="0 0 16 20" fill="none" xmlns="http://www.w3.org/2000/svg">
<path d="M0.834354 17.0176L0.834354 17.0169L0.834355 2.98357L0.834353 2.98285C0.833689 2.52326 0.96319 2.07288 1.20787 1.68384L0.784619 1.41765L1.20787 1.68384C1.45231 1.29518 1.80172 0.983616 2.21572 0.785132C2.72362 0.545487 3.2886 0.45322 3.84638 0.518841C4.40341 0.584373 4.93088 0.804741 5.36896 1.1549L13.8612 8.16516C14.1228 8.39292 14.3326 8.67398 14.4767 8.98951C14.6216 9.30677 14.6965 9.65147 14.6965 10.0002C14.6965 10.349 14.6216 10.6937 14.4767 11.011C14.3326 11.3265 14.1227 11.6076 13.8612 11.8353L5.36895 18.8456C4.93088 19.1957 4.4034 19.4161 3.84638 19.4816C3.28869 19.5472 2.72379 19.455 2.21594 19.2154C1.80184 19.017 1.45235 18.7054 1.20787 18.3166C0.963188 17.9276 0.833688 17.4772 0.834354 17.0176Z" stroke="#39383F"/>
</svg>
