<svg width="16" height="20" viewBox="0 0 16 20" fill="none" xmlns="http://www.w3.org/2000/svg">
<path d="M14.6967 17.0176L14.6967 17.0169L14.6967 2.98357L14.6967 2.98285C14.6973 2.52326 14.5678 2.07288 14.3231 1.68384L14.7464 1.41765L14.3231 1.68384C14.0787 1.29518 13.7293 0.983616 13.3153 0.785132C12.8074 0.545487 12.2424 0.45322 11.6846 0.518841C11.1276 0.584373 10.6001 0.804741 10.162 1.1549L1.66981 8.16516C1.40825 8.39292 1.19839 8.67398 1.05432 8.98951C0.909448 9.30677 0.834473 9.65147 0.834473 10.0002C0.834473 10.349 0.909448 10.6937 1.05432 11.011C1.1984 11.3265 1.40826 11.6076 1.66982 11.8353L10.1621 18.8456C10.6001 19.1957 11.1276 19.4161 11.6846 19.4816C12.2423 19.5472 12.8072 19.455 13.3151 19.2154C13.7292 19.017 14.0787 18.7054 14.3231 18.3166C14.5678 17.9276 14.6973 17.4772 14.6967 17.0176Z" stroke="url(#paint0_linear_289_113)"/>
<defs>
<linearGradient id="paint0_linear_289_113" x1="7.76556" y1="-0.0017092" x2="7.76557" y2="20.0022" gradientUnits="userSpaceOnUse">
<stop stop-color="#807EEE"/>
<stop offset="1" stop-color="#4045C9"/>
</linearGradient>
</defs>
</svg>
