<svg width="13" height="12" viewBox="0 0 13 12" fill="none" xmlns="http://www.w3.org/2000/svg">
<path d="M4.50033 8.1051L4.50033 3.8951C4.50009 3.72889 4.54692 3.56601 4.63541 3.42532C4.7239 3.28462 4.85042 3.17187 5.00033 3.1001C5.1782 3.01608 5.3761 2.98372 5.57146 3.0067C5.76683 3.02969 5.95181 3.10709 6.10533 3.2301L8.65533 5.3351C8.75065 5.4177 8.82709 5.51984 8.87948 5.63457C8.93187 5.74931 8.95898 5.87396 8.95898 6.0001C8.95898 6.12623 8.93187 6.25088 8.87948 6.36562C8.82709 6.48036 8.75065 6.58249 8.65533 6.6651L6.10533 8.7701C5.95181 8.8931 5.76683 8.9705 5.57146 8.99349C5.3761 9.01647 5.1782 8.98411 5.00033 8.9001C4.85042 8.82832 4.7239 8.71557 4.63541 8.57487C4.54692 8.43418 4.50009 8.2713 4.50033 8.1051Z" fill="white"/>
</svg>
