<svg width="13" height="12" viewBox="0 0 13 12" fill="none" xmlns="http://www.w3.org/2000/svg">
<path d="M8.49967 8.1051L8.49967 3.8951C8.49991 3.72889 8.45308 3.56601 8.36459 3.42532C8.2761 3.28462 8.14958 3.17187 7.99967 3.1001C7.8218 3.01608 7.6239 2.98372 7.42854 3.0067C7.23317 3.02969 7.04819 3.10709 6.89467 3.2301L4.34467 5.3351C4.24935 5.4177 4.17291 5.51984 4.12052 5.63457C4.06813 5.74931 4.04102 5.87396 4.04102 6.0001C4.04102 6.12623 4.06813 6.25088 4.12052 6.36562C4.17291 6.48036 4.24935 6.58249 4.34467 6.6651L6.89467 8.7701C7.04819 8.8931 7.23317 8.9705 7.42854 8.99349C7.6239 9.01647 7.8218 8.98411 7.99967 8.9001C8.14958 8.82832 8.2761 8.71557 8.36459 8.57487C8.45308 8.43418 8.49991 8.2713 8.49967 8.1051Z" fill="white"/>
</svg>
