<svg width="100" height="100" viewBox="0 0 100 100" fill="none" xmlns="http://www.w3.org/2000/svg">
<path d="M80 20C73.932 20.4172 31.3011 24.4766 28.321 53.7045C27.9589 56.8287 27.7538 59.967 27.619 63.1076L48.5806 42.1673C49.313 41.4349 50.5024 41.4349 51.2349 42.1673C51.9673 42.8997 51.9673 44.0868 51.2349 44.8193L20.8244 75.1991C19.7252 76.2971 19.7252 78.0784 20.8244 79.1765C21.9237 80.2745 23.7061 80.2745 24.8065 79.1765L31.5015 72.4885C36.434 72.4721 41.3629 72.1921 46.2626 71.626C52.5298 70.9885 57.6322 68.5241 61.7994 65.0002H49.9692L67.1714 59.2721C68.4897 57.5271 69.6757 55.6732 70.7398 53.7502H61.2311L73.7163 47.5146C78.6277 35.5696 79.7879 23.0774 80 20Z" fill="url(#paint0_linear_34_132)"/>
<defs>
<linearGradient id="paint0_linear_34_132" x1="20" y1="50" x2="80" y2="50" gradientUnits="userSpaceOnUse">
<stop stop-color="#807EEE"/>
<stop offset="1" stop-color="#4045C9"/>
</linearGradient>
</defs>
</svg>
