<svg width="16" height="16" viewBox="0 0 16 16" fill="none" xmlns="http://www.w3.org/2000/svg">
<path d="M0 4C0 2.89543 0.895431 2 2 2H14C15.1046 2 16 2.89543 16 4V12C16 13.1046 15.1046 14 14 14H2C0.895431 14 0 13.1046 0 12V4Z" fill="#00ABC2"/>
<path d="M8.64661 8.65515C9.53847 8.65515 10.2615 7.93215 10.2615 7.04028C10.2615 6.14842 9.53847 5.42542 8.64661 5.42542C7.75474 5.42542 7.03174 6.14842 7.03174 7.04028C7.03174 7.93215 7.75474 8.65515 8.64661 8.65515Z" fill="#FFEC2D"/>
<path d="M8.6465 5.20591C8.74248 5.20471 8.77847 5.14472 8.77847 5.07274C8.77847 4.97676 8.6465 4.51965 8.6465 4.51965C8.6465 4.51965 8.51453 4.97676 8.51453 5.07274C8.51453 5.14472 8.55052 5.20591 8.6465 5.20591Z" fill="#FFEC2D"/>
<path d="M10.481 7.0403C10.4822 7.13628 10.5422 7.17227 10.6142 7.17227C10.7101 7.17227 11.1672 7.0403 11.1672 7.0403C11.1672 7.0403 10.7101 6.90833 10.6142 6.90833C10.5422 6.90833 10.481 6.94432 10.481 7.0403Z" fill="#FFEC2D"/>
<path d="M8.64659 8.87465C8.55061 8.87585 8.51462 8.93584 8.51462 9.00783C8.51462 9.10381 8.64659 9.56091 8.64659 9.56091C8.64659 9.56091 8.77856 9.10381 8.77856 9.00783C8.77856 8.93584 8.74257 8.87465 8.64659 8.87465Z" fill="#FFEC2D"/>
<path d="M6.81211 7.04027C6.81091 6.94429 6.75093 6.9083 6.67894 6.9083C6.58296 6.9083 6.12585 7.04027 6.12585 7.04027C6.12585 7.04027 6.58296 7.17224 6.67894 7.17224C6.75093 7.17224 6.81211 7.13625 6.81211 7.04027Z" fill="#FFEC2D"/>
<path d="M9.34856 5.34553C9.4377 5.38116 9.49391 5.33951 9.52145 5.273C9.55818 5.18433 9.61118 4.71151 9.61118 4.71151C9.61118 4.71151 9.31433 5.08332 9.2776 5.172C9.25005 5.2385 9.25989 5.3088 9.34856 5.34553Z" fill="#FFEC2D"/>
<path d="M10.3412 7.74236C10.3056 7.8315 10.3473 7.88771 10.4138 7.91525C10.5024 7.95198 10.9753 8.00498 10.9753 8.00498C10.9753 8.00498 10.6034 7.70813 10.5148 7.6714C10.4483 7.64385 10.378 7.65369 10.3412 7.74236Z" fill="#FFEC2D"/>
<path d="M7.94453 8.73515C7.85539 8.69953 7.79918 8.74118 7.77164 8.80769C7.73491 8.89636 7.68191 9.36917 7.68191 9.36917C7.68191 9.36917 7.97876 8.99737 8.01549 8.90869C8.04304 8.84219 8.0332 8.77188 7.94453 8.73515Z" fill="#FFEC2D"/>
<path d="M6.95174 6.33832C6.98736 6.24919 6.94571 6.19298 6.8792 6.16543C6.79053 6.1287 6.31772 6.0757 6.31772 6.0757C6.31772 6.0757 6.68952 6.37256 6.7782 6.40929C6.8447 6.43684 6.91501 6.427 6.95174 6.33832Z" fill="#FFEC2D"/>
<path d="M9.94375 5.74313C10.0125 5.81015 10.0803 5.79318 10.1312 5.74228C10.1991 5.67441 10.429 5.25787 10.429 5.25787C10.429 5.25787 10.0125 5.48777 9.9446 5.55564C9.8937 5.60654 9.87589 5.67526 9.94375 5.74313Z" fill="#FFEC2D"/>
<path d="M9.94364 8.33743C9.87662 8.40615 9.89359 8.47402 9.94449 8.52492C10.0124 8.59279 10.4289 8.82269 10.4289 8.82269C10.4289 8.82269 10.199 8.40615 10.1311 8.33828C10.0802 8.28738 10.0115 8.26956 9.94364 8.33743Z" fill="#FFEC2D"/>
<path d="M7.34946 8.33744C7.28074 8.27042 7.21287 8.28739 7.16197 8.33829C7.0941 8.40616 6.8642 8.8227 6.8642 8.8227C6.8642 8.8227 7.28074 8.59279 7.34861 8.52492C7.39951 8.47402 7.41733 8.40531 7.34946 8.33744Z" fill="#FFEC2D"/>
<path d="M7.34945 5.74314C7.41647 5.67442 7.3995 5.60655 7.3486 5.55565C7.28073 5.48778 6.86419 5.25788 6.86419 5.25788C6.86419 5.25788 7.0941 5.67442 7.16196 5.74229C7.21287 5.79319 7.28158 5.811 7.34945 5.74314Z" fill="#FFEC2D"/>
<path d="M10.3414 6.33828C10.3792 6.4265 10.4484 6.43679 10.5149 6.40925C10.6036 6.37252 10.9754 6.07566 10.9754 6.07566C10.9754 6.07566 10.5026 6.12866 10.4139 6.16539C10.3474 6.19294 10.3047 6.24961 10.3414 6.33828Z" fill="#FFEC2D"/>
<path d="M9.34861 8.73521C9.26039 8.77305 9.2501 8.84224 9.27764 8.90875C9.31437 8.99742 9.61123 9.36923 9.61123 9.36923C9.61123 9.36923 9.55823 8.89641 9.5215 8.80774C9.49395 8.74124 9.43728 8.69848 9.34861 8.73521Z" fill="#FFEC2D"/>
<path d="M6.9518 7.74241C6.91396 7.65419 6.84477 7.64389 6.77826 7.67144C6.68959 7.70817 6.31778 8.00503 6.31778 8.00503C6.31778 8.00503 6.7906 7.95203 6.87927 7.9153C6.94578 7.88775 6.98853 7.83108 6.9518 7.74241Z" fill="#FFEC2D"/>
<path d="M7.94461 5.34548C8.03282 5.30764 8.04312 5.23845 8.01557 5.17194C7.97884 5.08327 7.68199 4.71146 7.68199 4.71146C7.68199 4.71146 7.73499 5.18427 7.77172 5.27295C7.79926 5.33945 7.85593 5.38221 7.94461 5.34548Z" fill="#FFEC2D"/>
<path d="M9.00605 5.24142C9.10041 5.25905 9.14746 5.20728 9.16156 5.13669C9.18037 5.04257 9.14052 4.56846 9.14052 4.56846C9.14052 4.56846 8.92154 4.99085 8.90273 5.08497C8.88863 5.15556 8.91193 5.22261 9.00605 5.24142Z" fill="#FFEC2D"/>
<path d="M10.4454 7.39985C10.4277 7.49421 10.4795 7.54126 10.5501 7.55536C10.6442 7.57417 11.1183 7.53432 11.1183 7.53432C11.1183 7.53432 10.6959 7.31534 10.6018 7.29653C10.5312 7.28243 10.4642 7.30573 10.4454 7.39985Z" fill="#FFEC2D"/>
<path d="M8.28704 8.83915C8.19268 8.82152 8.14563 8.87329 8.13153 8.94388C8.11272 9.038 8.15257 9.5121 8.15257 9.5121C8.15257 9.5121 8.37155 9.08972 8.39036 8.9956C8.40446 8.92501 8.38116 8.85796 8.28704 8.83915Z" fill="#FFEC2D"/>
<path d="M6.84762 6.68084C6.86525 6.58648 6.81348 6.53943 6.74289 6.52533C6.64877 6.50652 6.17466 6.54637 6.17466 6.54637C6.17466 6.54637 6.59705 6.76535 6.69117 6.78416C6.76176 6.79826 6.82881 6.77496 6.84762 6.68084Z" fill="#FFEC2D"/>
<path d="M9.66699 5.51588C9.74742 5.56828 9.8107 5.53845 9.85074 5.47863C9.90414 5.39887 10.0488 4.94561 10.0488 4.94561C10.0488 4.94561 9.6848 5.25204 9.63141 5.3318C9.59136 5.39162 9.58723 5.46249 9.66699 5.51588Z" fill="#FFEC2D"/>
<path d="M10.1709 8.06079C10.1185 8.14122 10.1483 8.2045 10.2081 8.24454C10.2879 8.29793 10.7412 8.44255 10.7412 8.44255C10.7412 8.44255 10.4347 8.0786 10.355 8.02521C10.2952 7.98516 10.2243 7.98103 10.1709 8.06079Z" fill="#FFEC2D"/>
<path d="M7.62598 8.56469C7.54555 8.51229 7.48227 8.54212 7.44223 8.60194C7.38883 8.68169 7.24421 9.13496 7.24421 9.13496C7.24421 9.13496 7.60817 8.82853 7.66156 8.74877C7.70161 8.68895 7.70574 8.61808 7.62598 8.56469Z" fill="#FFEC2D"/>
<path d="M7.1222 6.0199C7.1746 5.93947 7.14477 5.87619 7.08495 5.83615C7.0052 5.78275 6.55193 5.63814 6.55193 5.63814C6.55193 5.63814 6.85836 6.00209 6.93812 6.05548C6.99794 6.09553 7.06881 6.09966 7.1222 6.0199Z" fill="#FFEC2D"/>
<path d="M10.1727 6.02242C10.227 6.10161 10.2968 6.09827 10.3567 6.05833C10.4366 6.00507 10.7436 5.64166 10.7436 5.64166C10.7436 5.64166 10.2901 5.78548 10.2103 5.83874C10.1504 5.87868 10.1194 5.94257 10.1727 6.02242Z" fill="#FFEC2D"/>
<path d="M9.66435 8.5665C9.58516 8.62075 9.5885 8.69063 9.62844 8.75052C9.68169 8.83037 10.0451 9.13743 10.0451 9.13743C10.0451 9.13743 9.90128 8.68392 9.84803 8.60407C9.80809 8.54418 9.7442 8.51324 9.66435 8.5665Z" fill="#FFEC2D"/>
<path d="M7.12039 8.05814C7.06614 7.97896 6.99626 7.9823 6.93637 8.02224C6.85652 8.07549 6.54946 8.43891 6.54946 8.43891C6.54946 8.43891 7.00297 8.29508 7.08282 8.24183C7.14271 8.20189 7.17365 8.138 7.12039 8.05814Z" fill="#FFEC2D"/>
<path d="M7.62875 5.51407C7.70793 5.45982 7.70459 5.38994 7.66465 5.33005C7.6114 5.2502 7.24798 4.94313 7.24798 4.94313C7.24798 4.94313 7.39181 5.39665 7.44506 5.4765C7.485 5.53639 7.54889 5.56732 7.62875 5.51407Z" fill="#FFEC2D"/>
<path d="M10.4461 6.6839C10.4659 6.77782 10.5317 6.80147 10.6023 6.78749C10.6965 6.76885 11.1193 6.5506 11.1193 6.5506C11.1193 6.5506 10.6452 6.50993 10.5511 6.52857C10.4805 6.54255 10.4274 6.58974 10.4461 6.6839Z" fill="#FFEC2D"/>
<path d="M9.00287 8.83975C8.90895 8.85957 8.8853 8.92541 8.89928 8.99602C8.91792 9.09017 9.13617 9.51294 9.13617 9.51294C9.13617 9.51294 9.17684 9.0389 9.1582 8.94475C9.14421 8.87414 9.09702 8.82111 9.00287 8.83975Z" fill="#FFEC2D"/>
<path d="M6.84702 7.39655C6.8272 7.30263 6.76136 7.27897 6.69075 7.29295C6.5966 7.3116 6.17383 7.52984 6.17383 7.52984C6.17383 7.52984 6.64786 7.57052 6.74202 7.55187C6.81263 7.53789 6.86566 7.4907 6.84702 7.39655Z" fill="#FFEC2D"/>
<path d="M8.29022 5.24082C8.38414 5.221 8.40779 5.15516 8.39381 5.08455C8.37517 4.99039 8.15693 4.56763 8.15693 4.56763C8.15693 4.56763 8.11625 5.04166 8.13489 5.13581C8.14888 5.20643 8.19607 5.25946 8.29022 5.24082Z" fill="#FFEC2D"/>
<path d="M8.59126 9.85962C8.54927 9.93521 8.52407 10.0228 8.47128 10.0912C8.30812 9.9436 8.07297 9.9472 7.86661 9.93881C7.69624 9.92921 7.51148 9.91361 7.37951 9.79244C7.24154 9.67846 7.12756 9.53209 6.97399 9.43971C6.82967 9.40864 6.69404 9.34595 6.57687 9.25615C6.33452 9.05819 6.19535 8.76425 5.9578 8.56029C5.91341 8.5171 5.85942 8.48231 5.80903 8.44511C5.76104 8.45711 5.78264 8.56029 5.72385 8.5075C5.69146 8.48351 5.61107 8.48231 5.60387 8.5147C5.67586 8.61068 5.74904 8.71866 5.75984 8.84103C5.70945 8.84583 5.62187 8.83023 5.59788 8.84823C5.66381 8.94713 5.74666 9.03364 5.84263 9.10378C5.79703 9.11098 5.70705 9.10738 5.68906 9.12537C5.77888 9.21139 5.88978 9.27222 6.01059 9.30174C6.03459 9.33533 5.9734 9.40012 6.02619 9.42891C6.05618 9.44091 6.15696 9.4625 6.08737 9.4973C6.03938 9.52849 6.05738 9.60407 6.11857 9.60168C6.15696 9.62207 6.24334 9.62567 6.25054 9.66166C6.21575 9.69526 6.11017 9.73605 6.20015 9.76964C6.28498 9.81773 6.3799 9.84526 6.47729 9.85002C6.4293 9.89082 6.36932 9.91361 6.32013 9.952C6.54208 10.0828 6.78803 10.168 7.03278 10.2519C7.12876 10.2831 7.22834 10.3131 7.32912 10.3323C7.03638 10.3155 6.75324 10.2291 6.48689 10.1104C6.34892 10.0504 6.21095 9.9916 6.06938 9.94001C6.13057 9.90761 6.20255 9.89921 6.26734 9.87162C6.13297 9.84523 5.9878 9.83563 5.87142 9.76364C5.88822 9.73005 5.9554 9.72885 5.99379 9.71205C6.06578 9.69526 6.10897 9.67606 6.00939 9.66886C5.90861 9.64127 5.79344 9.65326 5.70345 9.59328C5.70945 9.55728 5.80303 9.56928 5.84023 9.55369C5.88822 9.54529 5.941 9.53809 5.9794 9.5057C5.82343 9.44211 5.61947 9.4877 5.4971 9.34973C5.4695 9.29694 5.58468 9.33893 5.61707 9.33053C5.70105 9.33053 5.79104 9.35693 5.87142 9.32333C5.64347 9.22375 5.39992 9.13137 5.22715 8.94661C5.20796 8.91662 5.15037 8.83503 5.19716 8.82544C5.33153 8.84343 5.42871 8.9898 5.57388 8.96701C5.59308 8.94181 5.4899 8.89982 5.4635 8.86263C5.24647 8.68824 5.05716 8.48194 4.90202 8.25075C4.89242 8.17037 5.016 8.15837 5.04839 8.21956C5.20916 8.37553 5.35433 8.55549 5.55468 8.66107C5.62667 8.69586 5.51389 8.62028 5.4995 8.59268C5.30894 8.38143 5.14421 8.14824 5.0088 7.89803C4.9848 7.85244 4.94761 7.76965 5.0172 7.74566C5.08558 7.71086 5.15517 7.75766 5.18996 7.81764C5.32553 7.98921 5.42631 8.19317 5.59548 8.33594C5.45151 8.05639 5.29674 7.76005 5.29314 7.43852C5.29674 7.37613 5.30034 7.28255 5.38552 7.28375C5.4575 7.27295 5.44551 7.36414 5.4695 7.40733C5.53909 7.64488 5.56908 7.90163 5.70945 8.11038C5.67946 7.93522 5.63267 7.75406 5.66386 7.57529C5.67106 7.51531 5.73585 7.49851 5.78024 7.5345C5.81503 7.61848 5.82223 7.72526 5.85342 7.81644C6.04041 8.43751 6.4341 8.97598 6.96919 9.34253C7.40733 9.64234 7.91857 9.81773 8.44849 9.85002C8.49648 9.85482 8.54447 9.85602 8.59126 9.85842M10.2277 10.9514C10.1413 11.0042 10.0742 10.9106 10.0022 10.883C9.94938 10.9118 9.94458 11.0054 9.89659 11.051C9.839 11.117 9.76702 11.0318 9.77302 10.967C9.70343 11.0258 9.66864 11.159 9.55706 11.1398C9.50307 11.0966 9.46348 11.0054 9.42269 11.1098C9.39029 11.1602 9.30271 11.2321 9.25592 11.1554C9.24152 11.0882 9.20793 11.009 9.17194 11.1158C9.14554 11.1925 9.06396 11.2477 8.98718 11.2141C8.94399 11.1794 9.02077 11.0498 8.96678 11.0582C8.8852 11.1134 8.83721 11.2465 8.72323 11.2357C8.67884 11.1877 8.75083 11.1026 8.70164 11.0474C8.64525 11.1206 8.58166 11.2285 8.48208 11.2357C8.43409 11.1973 8.48448 11.0858 8.45329 11.0702C8.35251 11.1302 8.24453 11.2393 8.11736 11.2057C8.16655 11.0138 8.3753 10.9478 8.54927 10.9334C8.85041 10.8962 9.16714 10.9646 9.45748 10.8554C9.50427 10.8266 9.61705 10.787 9.57746 10.721C9.54146 10.6683 9.66984 10.6887 9.68183 10.6275C9.67464 10.5507 9.74182 10.5615 9.80661 10.5555C10.0993 10.5423 10.3885 10.6035 10.68 10.6143C10.7016 10.7558 10.5445 10.8554 10.4161 10.8122C10.3561 10.8218 10.2661 10.6731 10.2841 10.781C10.2721 10.8386 10.2793 10.913 10.2277 10.9514ZM7.73943 10.6611C7.80662 10.7222 7.85461 10.6491 7.9182 10.6215C8.12584 10.5402 8.32094 10.4299 8.49768 10.2939C8.60806 10.2028 8.70404 10.084 8.8528 10.054C9.14315 9.9664 9.45148 9.9772 9.74182 9.89561C9.96378 9.59328 10.3393 9.4841 10.6548 9.31014C10.7256 9.28854 10.7532 9.22975 10.7748 9.16617C10.8948 8.9754 11.0592 8.80744 11.2535 8.69226C11.3452 8.63808 11.4533 8.61851 11.5582 8.63707C11.5438 8.75946 11.4854 8.87244 11.3939 8.95501C11.4647 8.95381 11.5259 8.90942 11.5954 8.91182C11.6194 9.03899 11.4827 9.10498 11.4095 9.18416C11.4503 9.19376 11.6062 9.20576 11.5211 9.24655C11.4131 9.32093 11.2895 9.37252 11.1899 9.4601C11.2823 9.4769 11.2931 9.4961 11.1995 9.52969C11.1479 9.56328 11.0508 9.57528 11.0412 9.64247C11.1107 9.68566 11.01 9.72645 10.9704 9.74085C10.896 9.75884 10.8168 9.79124 10.9164 9.84882C10.8792 9.90521 10.7976 9.91721 10.7316 9.91121C10.752 9.976 10.7808 10.048 10.698 10.0768C10.5123 10.2236 10.2899 10.3165 10.055 10.3455C10.3489 10.3671 10.6524 10.3131 10.9032 10.1536C10.9368 10.114 11.1107 10.0708 11.0136 10.0384C10.968 10.0192 10.8696 9.99759 10.8624 9.9628C10.9992 9.87882 11.1707 9.90881 11.3171 9.85962C11.3207 9.81163 11.2055 9.82483 11.1623 9.81403C11.0604 9.80563 11.0664 9.77924 11.1647 9.76964C11.2895 9.73605 11.4311 9.73005 11.5367 9.64967C11.4515 9.60887 11.3435 9.64367 11.2523 9.61127C11.4071 9.54409 11.5894 9.53689 11.7286 9.43491C11.7922 9.36412 11.647 9.38692 11.605 9.38812C11.5199 9.40372 11.4803 9.36172 11.5774 9.32693C11.7442 9.20336 11.9542 9.12417 12.0717 8.94661C12.0993 8.90702 12.1365 8.78704 12.0477 8.82903C11.9326 8.86863 11.8306 8.9982 11.6974 8.95861C11.959 8.75585 12.2061 8.5267 12.3849 8.24715C12.3945 8.16557 12.2673 8.15717 12.2349 8.22076C12.0669 8.38153 11.9158 8.57229 11.701 8.67427C11.9034 8.47187 12.0792 8.24448 12.2241 7.99761C12.2565 7.92562 12.3417 7.83804 12.2961 7.75766C12.2205 7.69527 12.1269 7.75286 12.0885 7.82604C11.9578 7.99641 11.8594 8.19437 11.6926 8.33354C11.8378 8.05399 11.9902 7.75526 11.9926 7.43372C11.9926 7.36654 11.9806 7.26816 11.8894 7.28135C11.8174 7.29335 11.8354 7.40133 11.8054 7.45532C11.7406 7.67607 11.7094 7.91482 11.5774 8.10678C11.6074 7.92802 11.659 7.74086 11.6194 7.5609C11.6002 7.47931 11.4695 7.51411 11.4875 7.59449C11.3315 8.38513 10.8 9.07618 10.1077 9.4757C9.78981 9.65566 9.43588 9.77084 9.07356 9.82363C8.97758 9.84403 8.872 9.83203 8.77962 9.86562C8.55407 10.0372 8.41849 10.3263 8.13415 10.4163C8.00578 10.4799 7.84021 10.4931 7.74903 10.6107C7.74164 10.6264 7.73834 10.6437 7.73943 10.6611ZM8.35971 10.5375C8.31652 10.5399 8.27452 10.5447 8.23253 10.5579C8.17615 10.5663 8.12216 10.5855 8.06697 10.5939L8.04417 10.5987L8.00698 10.6023C8.01182 10.6224 8.01182 10.6433 8.00698 10.6635C8.00308 10.6725 7.99737 10.6807 7.99018 10.6875C7.98298 10.697 7.97459 10.7042 7.96379 10.709C7.95403 10.7138 7.94344 10.7167 7.9326 10.7174C7.9218 10.7174 7.911 10.7174 7.9002 10.7126C7.8894 10.709 7.87981 10.703 7.87021 10.6946L7.83661 10.7006H7.80542L7.77183 10.6887C7.76098 10.6844 7.75054 10.6792 7.74063 10.6731C7.69984 10.697 7.65425 10.7198 7.62906 10.7618C7.61734 10.781 7.61073 10.8029 7.60986 10.8254C7.60746 10.8542 7.61466 10.883 7.62666 10.9094C7.63146 10.9166 7.63506 10.8818 7.64825 10.877C7.67105 10.8578 7.69984 10.8446 7.72864 10.8374C7.75263 10.8254 7.74903 10.8374 7.73943 10.8566C7.73704 10.8674 7.72384 10.9046 7.74183 10.8854C7.8248 10.8544 7.91243 10.8378 8.00098 10.8362C8.12815 10.823 8.25533 10.8194 8.3825 10.8182L8.74243 10.8254C8.80002 10.8278 8.8576 10.8398 8.91399 10.8302C8.92719 10.8266 8.94879 10.8266 8.95718 10.8182C8.93079 10.8038 8.9008 10.8026 8.8732 10.799H8.64405C8.58046 10.793 8.51448 10.7918 8.45449 10.7678C8.43769 10.7618 8.42329 10.7462 8.4077 10.763C8.38485 10.7712 8.36107 10.7764 8.33691 10.7786C8.29492 10.781 8.25293 10.7726 8.21454 10.757C8.24213 10.7186 8.27572 10.6851 8.30692 10.6491L8.23253 10.6335C8.27692 10.6035 8.31652 10.5687 8.35971 10.5375Z" fill="#FFEC2D"/>
<path d="M7.92174 10.6792C7.93764 10.6792 7.95053 10.6663 7.95053 10.6504C7.95053 10.6345 7.93764 10.6216 7.92174 10.6216C7.90584 10.6216 7.89294 10.6345 7.89294 10.6504C7.89294 10.6663 7.90584 10.6792 7.92174 10.6792Z" fill="#FFEC2D"/>
<path d="M7.91935 10.6575C7.92597 10.6575 7.93134 10.6522 7.93134 10.6455C7.93134 10.6389 7.92597 10.6335 7.91935 10.6335C7.91272 10.6335 7.90735 10.6389 7.90735 10.6455C7.90735 10.6522 7.91272 10.6575 7.91935 10.6575Z" fill="#FFEC2D" stroke="#FFEC2D" stroke-width="0.0064"/>
<path d="M1.44307 2.87709C1.44307 2.87709 1.32789 2.77871 1.2883 2.8279C1.22591 2.90588 1.48266 3.2958 1.48266 3.43257C1.48266 3.65813 1.33149 3.71931 1.14673 3.75051C1.02195 3.7721 0.819196 3.74211 0.819196 3.74211C0.857588 3.69052 0.882783 3.67492 0.946369 3.67132C0.874384 3.63533 0.802399 3.55375 0.802399 3.42777C0.802399 3.23461 0.881583 3.15423 0.881583 2.93588C0.881583 2.8171 0.783203 2.66113 0.783203 2.66113C0.958367 2.67913 1.04475 2.8411 0.995559 2.97067C1.00906 2.97336 1.02302 2.97268 1.0362 2.96871C1.04938 2.96473 1.06138 2.95758 1.07114 2.94787C1.08314 2.98387 1.06395 3.02586 1.03635 3.06185C1.05795 3.07385 1.07474 3.06665 1.10834 3.05945C1.10594 3.09544 1.08434 3.13623 1.02915 3.17343C1.18752 3.13264 1.2835 3.24181 1.2835 3.35699C1.2835 3.44457 1.22351 3.50696 1.16352 3.50696C1.14433 3.50696 1.11553 3.49856 1.09994 3.48656C1.08794 3.51056 1.09514 3.54295 1.10594 3.56695C1.06275 3.55495 1.03395 3.52855 1.05435 3.47457C1.02075 3.47217 0.99436 3.46017 0.976363 3.43857C0.99436 3.41458 1.02195 3.40258 1.05435 3.40258C1.03035 3.35219 1.05795 3.3246 1.09754 3.3018C1.09754 3.3018 1.07234 3.40258 1.13593 3.40258C1.16472 3.40258 1.19112 3.39418 1.19112 3.35099C1.19112 3.3138 1.15873 3.26221 1.08314 3.26581C1.00876 3.26941 0.947569 3.3174 0.947569 3.43737C0.947569 3.54775 1.03755 3.60294 1.15513 3.60534C1.2607 3.61014 1.34109 3.55255 1.34109 3.44337C1.34109 3.297 1.13113 2.96587 1.13113 2.8363C1.13113 2.73912 1.21751 2.68393 1.3039 2.68393C1.41427 2.68393 1.50785 2.79431 1.50785 2.79431L1.44307 2.87589V2.87709Z" fill="#FFEC2D"/>
<path d="M1.46711 5.50569C1.46711 5.74924 1.24876 5.87401 1.07719 5.87401C0.846841 5.87401 0.723267 5.73604 0.723267 5.55488C0.723267 5.4529 0.742463 5.38811 0.789253 5.29093L1.31954 4.19076C1.33875 4.14448 1.34697 4.09438 1.34354 4.04439C1.34354 3.94601 1.24756 3.86562 1.14798 3.86442C1.0568 3.86083 0.956019 3.94841 0.956019 4.04799C0.956019 4.16916 1.01961 4.22315 1.08439 4.22315C1.16358 4.22315 1.19477 4.19076 1.19477 4.13437C1.19477 4.09598 1.17677 4.07918 1.14918 4.07918C1.08079 4.07918 1.10119 4.17036 1.10119 4.17036C1.09216 4.16869 1.08361 4.16505 1.07615 4.15969C1.06869 4.15434 1.0625 4.1474 1.05803 4.13938C1.05357 4.13136 1.05092 4.12245 1.05029 4.11329C1.04966 4.10412 1.05107 4.09494 1.0544 4.08638C1.02872 4.08062 1.00558 4.06674 0.988412 4.04679C1.00641 4.02879 1.028 4.01559 1.0544 4.01079C1.0388 3.95801 1.0604 3.93281 1.10599 3.92081C1.09778 3.93885 1.09568 3.95906 1.09999 3.9784C1.17197 3.95681 1.28355 3.9904 1.28355 4.11517C1.28355 4.23995 1.19717 4.34433 1.0352 4.31913C1.07359 4.33713 1.09279 4.37432 1.09759 4.41631C1.0676 4.40431 1.0352 4.40431 1.0352 4.40431C1.0544 4.43671 1.08079 4.4643 1.07959 4.53149C1.0496 4.51709 1.02081 4.4919 0.983613 4.50749C1.0436 4.62747 0.969216 4.79063 0.779655 4.82903C0.849241 4.74744 0.882834 4.66106 0.882834 4.57348C0.882834 4.29154 0.80485 4.24475 0.80485 4.04799C0.806084 4.00235 0.818151 3.95767 0.840054 3.91762C0.861958 3.87757 0.89307 3.8433 0.930824 3.81763V3.82123C0.907607 3.81647 0.885662 3.80684 0.866432 3.79298C0.847201 3.77913 0.831121 3.76136 0.819247 3.74085C0.952898 3.70401 1.09418 3.70526 1.22716 3.74445C1.27164 3.75074 1.31414 3.76695 1.35152 3.79187C1.3889 3.81678 1.4202 3.84978 1.44312 3.88842C1.46707 3.94308 1.47944 4.00211 1.47944 4.06178C1.47944 4.12146 1.46707 4.18049 1.44312 4.23515C1.36753 4.39112 1.01481 5.14216 0.904429 5.37731C0.880434 5.4277 0.867237 5.48049 0.867237 5.53808C0.867237 5.68205 0.99921 5.73244 1.07359 5.73244C1.16358 5.73244 1.25596 5.66405 1.25596 5.57887C1.25596 5.52488 1.22596 5.49129 1.18397 5.49129C1.08199 5.49129 1.08799 5.57767 1.10839 5.63286C1.0448 5.60407 1.00881 5.55368 1.01841 5.50089C0.979037 5.49428 0.943309 5.47386 0.917627 5.4433C0.941622 5.41211 0.972815 5.38811 1.01841 5.38691C0.99801 5.30413 1.0544 5.26934 1.10839 5.25014C1.09159 5.31013 1.07959 5.38091 1.18397 5.38091C1.25956 5.38091 1.31834 5.39291 1.35314 5.4433L1.36154 5.11937C1.36633 5.02219 1.23196 5.02339 1.14558 5.05338C1.17797 4.9418 1.24396 4.88062 1.39753 4.89621C1.374 4.88717 1.35392 4.87094 1.34014 4.84983C1.32635 4.82873 1.31957 4.80382 1.32074 4.77864C1.32074 4.68746 1.39513 4.58668 1.44312 4.55668L1.46711 5.50449V5.50569Z" fill="#FFEC2D"/>
<path d="M1.46711 6.23516C1.46711 5.99161 1.24876 5.86683 1.07719 5.86683C0.846841 5.86683 0.723267 6.00481 0.723267 6.18597C0.723267 6.28795 0.742463 6.35273 0.789253 6.44991L1.31954 7.55009C1.33875 7.59636 1.34697 7.64647 1.34354 7.69646C1.34354 7.79484 1.24756 7.87522 1.14798 7.87642C1.0568 7.88002 0.956019 7.79244 0.956019 7.69286C0.956019 7.57168 1.01961 7.51769 1.08439 7.51769C1.16358 7.51769 1.19477 7.55009 1.19477 7.60648C1.19477 7.64487 1.17677 7.66166 1.14918 7.66166C1.08079 7.66166 1.10119 7.57048 1.10119 7.57048C1.09216 7.57215 1.08361 7.5758 1.07615 7.58115C1.06869 7.58651 1.0625 7.59344 1.05803 7.60147C1.05357 7.60949 1.05092 7.6184 1.05029 7.62756C1.04966 7.63672 1.05107 7.64591 1.0544 7.65447C1.02872 7.66022 1.00558 7.67411 0.988412 7.69406C1.00641 7.71205 1.028 7.72525 1.0544 7.73005C1.0388 7.78284 1.0604 7.80803 1.10599 7.82003C1.09778 7.802 1.09568 7.78178 1.09999 7.76244C1.17197 7.78404 1.28355 7.75045 1.28355 7.62567C1.28355 7.5009 1.19717 7.39652 1.0352 7.42171C1.07359 7.40372 1.09279 7.36653 1.09759 7.32453C1.0676 7.33653 1.0352 7.33653 1.0352 7.33653C1.0544 7.30414 1.08079 7.27654 1.07959 7.20936C1.0496 7.22375 1.02081 7.24895 0.983613 7.23335C1.0436 7.11338 0.969216 6.95021 0.779655 6.91182C0.849241 6.9934 0.882834 7.07978 0.882834 7.16737C0.882834 7.44931 0.80485 7.4961 0.80485 7.69286C0.806084 7.73849 0.818151 7.78318 0.840054 7.82323C0.861958 7.86328 0.89307 7.89755 0.930824 7.92321V7.91961C0.907607 7.92438 0.885662 7.93401 0.866432 7.94786C0.847201 7.96171 0.831121 7.97948 0.819247 7.99999C0.952898 8.03683 1.09418 8.03558 1.22716 7.9964C1.27164 7.9901 1.31414 7.9739 1.35152 7.94898C1.3889 7.92406 1.4202 7.89106 1.44312 7.85243C1.46707 7.79777 1.47944 7.73874 1.47944 7.67906C1.47944 7.61938 1.46707 7.56035 1.44312 7.5057C1.36753 7.34973 1.01481 6.59868 0.904429 6.36353C0.880434 6.31314 0.867237 6.26035 0.867237 6.20276C0.867237 6.05879 0.99921 6.0084 1.07359 6.0084C1.16358 6.0084 1.25596 6.07679 1.25596 6.16197C1.25596 6.21596 1.22596 6.24956 1.18397 6.24956C1.08199 6.24956 1.08799 6.16317 1.10839 6.10798C1.0448 6.13678 1.00881 6.18717 1.01841 6.23996C0.979037 6.24657 0.943309 6.26698 0.917627 6.29755C0.941622 6.32874 0.972815 6.35273 1.01841 6.35393C0.99801 6.43672 1.0544 6.47151 1.10839 6.49071C1.09159 6.43072 1.07959 6.35993 1.18397 6.35993C1.25956 6.35993 1.31834 6.34793 1.35314 6.29755L1.36154 6.62148C1.36633 6.71866 1.23196 6.71746 1.14558 6.68746C1.17797 6.79904 1.24396 6.86023 1.39753 6.84463C1.374 6.85368 1.35392 6.86991 1.34014 6.89101C1.32635 6.91212 1.31957 6.93703 1.32074 6.96221C1.32074 7.05339 1.39513 7.15417 1.44312 7.18416L1.46711 6.23636V6.23516Z" fill="#FFEC2D"/>
<path d="M1.44316 2.87709C1.44316 2.87709 1.55834 2.77871 1.59793 2.8279C1.66032 2.90588 1.40357 3.2958 1.40357 3.43257C1.40357 3.65813 1.55474 3.71931 1.7395 3.75051C1.86428 3.7721 2.06703 3.74211 2.06703 3.74211C2.02864 3.69052 2.00345 3.67492 1.93986 3.67132C2.01185 3.63533 2.08383 3.55375 2.08383 3.42777C2.08383 3.23461 2.00465 3.15423 2.00465 2.93588C2.00465 2.8171 2.10303 2.66113 2.10303 2.66113C1.92786 2.67913 1.84148 2.8411 1.89067 2.97067C1.87717 2.97336 1.86321 2.97268 1.85003 2.96871C1.83685 2.96473 1.82485 2.95758 1.81509 2.94787C1.80309 2.98387 1.82229 3.02586 1.84988 3.06185C1.82828 3.07385 1.81149 3.06665 1.77789 3.05945C1.78029 3.09544 1.80189 3.13623 1.85708 3.17343C1.69871 3.13264 1.60273 3.24181 1.60273 3.35699C1.60273 3.44457 1.66272 3.50696 1.72271 3.50696C1.7419 3.50696 1.7707 3.49856 1.78629 3.48656C1.79829 3.51056 1.79109 3.54295 1.78029 3.56695C1.82348 3.55495 1.85228 3.52855 1.83188 3.47457C1.86548 3.47217 1.89187 3.46017 1.90987 3.43857C1.89187 3.41458 1.86428 3.40258 1.83188 3.40258C1.85588 3.35219 1.82828 3.3246 1.78869 3.3018C1.78869 3.3018 1.81389 3.40258 1.7503 3.40258C1.72151 3.40258 1.69511 3.39418 1.69511 3.35099C1.69511 3.3138 1.7275 3.26221 1.80309 3.26581C1.87747 3.26941 1.93866 3.3174 1.93866 3.43737C1.93866 3.54775 1.84868 3.60294 1.7311 3.60534C1.62553 3.61014 1.54514 3.55255 1.54514 3.44337C1.54514 3.297 1.7551 2.96587 1.7551 2.8363C1.7551 2.73912 1.66872 2.68393 1.58233 2.68393C1.47196 2.68393 1.37838 2.79431 1.37838 2.79431L1.44316 2.87589V2.87709Z" fill="#FFEC2D"/>
<path d="M1.41912 5.50569C1.41912 5.74924 1.63747 5.87401 1.80904 5.87401C2.03939 5.87401 2.16296 5.73604 2.16296 5.55488C2.16296 5.4529 2.14377 5.38811 2.09698 5.29093L1.56669 4.19076C1.54748 4.14448 1.53926 4.09438 1.54269 4.04439C1.54269 3.94601 1.63867 3.86562 1.73825 3.86442C1.82943 3.86083 1.93021 3.94841 1.93021 4.04799C1.93021 4.16916 1.86662 4.22315 1.80184 4.22315C1.72265 4.22315 1.69146 4.19076 1.69146 4.13437C1.69146 4.09598 1.70946 4.07918 1.73705 4.07918C1.80544 4.07918 1.78504 4.17036 1.78504 4.17036C1.79407 4.16869 1.80262 4.16505 1.81008 4.15969C1.81754 4.15434 1.82373 4.1474 1.8282 4.13938C1.83267 4.13136 1.83531 4.12245 1.83594 4.11329C1.83657 4.10412 1.83516 4.09494 1.83183 4.08638C1.85751 4.08062 1.88065 4.06674 1.89782 4.04679C1.87982 4.02879 1.85823 4.01559 1.83183 4.01079C1.84743 3.95801 1.82583 3.93281 1.78024 3.92081C1.78845 3.93885 1.79055 3.95906 1.78624 3.9784C1.71426 3.95681 1.60268 3.9904 1.60268 4.11517C1.60268 4.23995 1.68906 4.34433 1.85103 4.31913C1.81264 4.33713 1.79344 4.37432 1.78864 4.41631C1.81863 4.40431 1.85103 4.40431 1.85103 4.40431C1.83183 4.43671 1.80544 4.4643 1.80664 4.53149C1.83663 4.51709 1.86543 4.4919 1.90262 4.50749C1.84263 4.62747 1.91701 4.79063 2.10658 4.82903C2.03699 4.74744 2.0034 4.66106 2.0034 4.57348C2.0034 4.29154 2.08138 4.24475 2.08138 4.04799C2.08015 4.00235 2.06808 3.95767 2.04618 3.91762C2.02427 3.87757 1.99316 3.8433 1.95541 3.81763V3.82123C1.97862 3.81647 2.00057 3.80684 2.0198 3.79298C2.03903 3.77913 2.05511 3.76136 2.06698 3.74085C1.93333 3.70401 1.79205 3.70526 1.65907 3.74445C1.61459 3.75074 1.57209 3.76695 1.53471 3.79187C1.49733 3.81678 1.46603 3.84978 1.44311 3.88842C1.41916 3.94308 1.40679 4.00211 1.40679 4.06178C1.40679 4.12146 1.41916 4.18049 1.44311 4.23515C1.5187 4.39112 1.87142 5.14216 1.9818 5.37731C2.0058 5.4277 2.01899 5.48049 2.01899 5.53808C2.01899 5.68205 1.88702 5.73244 1.81264 5.73244C1.72265 5.73244 1.63027 5.66405 1.63027 5.57887C1.63027 5.52488 1.66027 5.49129 1.70226 5.49129C1.80424 5.49129 1.79824 5.57767 1.77784 5.63286C1.84143 5.60407 1.87742 5.55368 1.86782 5.50089C1.90719 5.49428 1.94292 5.47386 1.9686 5.4433C1.94461 5.41211 1.91342 5.38811 1.86782 5.38691C1.88822 5.30413 1.83183 5.26934 1.77784 5.25014C1.79464 5.31013 1.80664 5.38091 1.70226 5.38091C1.62667 5.38091 1.56789 5.39291 1.53309 5.4433L1.5247 5.11937C1.5199 5.02219 1.65427 5.02339 1.74065 5.05338C1.70826 4.9418 1.64227 4.88062 1.4887 4.89621C1.51223 4.88717 1.53231 4.87094 1.54609 4.84983C1.55988 4.82873 1.56666 4.80382 1.56549 4.77864C1.56549 4.68746 1.4911 4.58668 1.44311 4.55668L1.41912 5.50449V5.50569Z" fill="#FFEC2D"/>
<path d="M1.41912 6.23516C1.41912 5.99161 1.63747 5.86683 1.80904 5.86683C2.03939 5.86683 2.16296 6.00481 2.16296 6.18597C2.16296 6.28795 2.14377 6.35273 2.09698 6.44991L1.56669 7.55009C1.54748 7.59636 1.53926 7.64647 1.54269 7.69646C1.54269 7.79484 1.63867 7.87522 1.73825 7.87642C1.82943 7.88002 1.93021 7.79244 1.93021 7.69286C1.93021 7.57168 1.86662 7.51769 1.80184 7.51769C1.72265 7.51769 1.69146 7.55009 1.69146 7.60648C1.69146 7.64487 1.70946 7.66166 1.73705 7.66166C1.80544 7.66166 1.78504 7.57048 1.78504 7.57048C1.79407 7.57215 1.80262 7.5758 1.81008 7.58115C1.81754 7.58651 1.82373 7.59344 1.8282 7.60147C1.83267 7.60949 1.83531 7.6184 1.83594 7.62756C1.83657 7.63672 1.83516 7.64591 1.83183 7.65447C1.85751 7.66022 1.88065 7.67411 1.89782 7.69406C1.87982 7.71205 1.85823 7.72525 1.83183 7.73005C1.84743 7.78284 1.82583 7.80803 1.78024 7.82003C1.78845 7.802 1.79055 7.78178 1.78624 7.76244C1.71426 7.78404 1.60268 7.75045 1.60268 7.62567C1.60268 7.5009 1.68906 7.39652 1.85103 7.42171C1.81264 7.40372 1.79344 7.36653 1.78864 7.32453C1.81863 7.33653 1.85103 7.33653 1.85103 7.33653C1.83183 7.30414 1.80544 7.27654 1.80664 7.20936C1.83663 7.22375 1.86543 7.24895 1.90262 7.23335C1.84263 7.11338 1.91701 6.95021 2.10658 6.91182C2.03699 6.9934 2.0034 7.07978 2.0034 7.16737C2.0034 7.44931 2.08138 7.4961 2.08138 7.69286C2.08015 7.73849 2.06808 7.78318 2.04618 7.82323C2.02427 7.86328 1.99316 7.89755 1.95541 7.92321V7.91961C1.97862 7.92438 2.00057 7.93401 2.0198 7.94786C2.03903 7.96171 2.05511 7.97948 2.06698 7.99999C1.93333 8.03683 1.79205 8.03558 1.65907 7.9964C1.61459 7.9901 1.57209 7.9739 1.53471 7.94898C1.49733 7.92406 1.46603 7.89106 1.44311 7.85243C1.41916 7.79777 1.40679 7.73874 1.40679 7.67906C1.40679 7.61938 1.41916 7.56035 1.44311 7.5057C1.5187 7.34973 1.87142 6.59868 1.9818 6.36353C2.0058 6.31314 2.01899 6.26035 2.01899 6.20276C2.01899 6.05879 1.88702 6.0084 1.81264 6.0084C1.72265 6.0084 1.63027 6.07679 1.63027 6.16197C1.63027 6.21596 1.66027 6.24956 1.70226 6.24956C1.80424 6.24956 1.79824 6.16317 1.77784 6.10798C1.84143 6.13678 1.87742 6.18717 1.86782 6.23996C1.90719 6.24657 1.94292 6.26698 1.9686 6.29755C1.94461 6.32874 1.91342 6.35273 1.86782 6.35393C1.88822 6.43672 1.83183 6.47151 1.77784 6.49071C1.79464 6.43072 1.80664 6.35993 1.70226 6.35993C1.62667 6.35993 1.56789 6.34793 1.53309 6.29755L1.5247 6.62148C1.5199 6.71866 1.65427 6.71746 1.74065 6.68746C1.70826 6.79904 1.64227 6.86023 1.4887 6.84463C1.51223 6.85368 1.53231 6.86991 1.54609 6.89101C1.55988 6.91212 1.56666 6.93703 1.56549 6.96221C1.56549 7.05339 1.4911 7.15417 1.44311 7.18416L1.41912 6.23636V6.23516Z" fill="#FFEC2D"/>
<path d="M1.44307 13.1229C1.44307 13.1229 1.32789 13.2213 1.2883 13.1721C1.22591 13.0941 1.48266 12.7042 1.48266 12.5674C1.48266 12.3419 1.33149 12.2807 1.14673 12.2495C1.02195 12.2279 0.819196 12.2579 0.819196 12.2579C0.857588 12.3095 0.882783 12.3251 0.946369 12.3287C0.874384 12.3647 0.802399 12.4463 0.802399 12.5722C0.802399 12.7654 0.881583 12.8458 0.881583 13.0641C0.881583 13.1829 0.783203 13.3389 0.783203 13.3389C0.958367 13.3209 1.04475 13.1589 0.995559 13.0293C1.00906 13.0266 1.02302 13.0273 1.0362 13.0313C1.04938 13.0353 1.06138 13.0424 1.07114 13.0521C1.08314 13.0161 1.06395 12.9741 1.03635 12.9381C1.05795 12.9262 1.07474 12.9334 1.10834 12.9405C1.10594 12.9046 1.08434 12.8638 1.02915 12.8266C1.18752 12.8674 1.2835 12.7582 1.2835 12.643C1.2835 12.5554 1.22351 12.493 1.16352 12.493C1.14433 12.493 1.11553 12.5014 1.09994 12.5134C1.08794 12.4894 1.09514 12.457 1.10594 12.4331C1.06275 12.4451 1.03395 12.4714 1.05435 12.5254C1.02075 12.5278 0.99436 12.5398 0.976363 12.5614C0.99436 12.5854 1.02195 12.5974 1.05435 12.5974C1.03035 12.6478 1.05795 12.6754 1.09754 12.6982C1.09754 12.6982 1.07234 12.5974 1.13593 12.5974C1.16472 12.5974 1.19112 12.6058 1.19112 12.649C1.19112 12.6862 1.15873 12.7378 1.08314 12.7342C1.00876 12.7306 0.947569 12.6826 0.947569 12.5626C0.947569 12.4522 1.03755 12.3971 1.15513 12.3947C1.2607 12.3899 1.34109 12.4475 1.34109 12.5566C1.34109 12.703 1.13113 13.0341 1.13113 13.1637C1.13113 13.2609 1.21751 13.3161 1.3039 13.3161C1.41427 13.3161 1.50785 13.2057 1.50785 13.2057L1.44307 13.1241V13.1229Z" fill="#FFEC2D"/>
<path d="M1.46711 10.4943C1.46711 10.2508 1.24876 10.126 1.07719 10.126C0.846841 10.126 0.723267 10.264 0.723267 10.4451C0.723267 10.5471 0.742463 10.6119 0.789253 10.7091L1.31954 11.8092C1.33875 11.8555 1.34697 11.9056 1.34354 11.9556C1.34354 12.054 1.24756 12.1344 1.14798 12.1356C1.0568 12.1392 0.956019 12.0516 0.956019 11.952C0.956019 11.8308 1.01961 11.7768 1.08439 11.7768C1.16358 11.7768 1.19477 11.8092 1.19477 11.8656C1.19477 11.904 1.17677 11.9208 1.14918 11.9208C1.08079 11.9208 1.10119 11.8296 1.10119 11.8296C1.09216 11.8313 1.08361 11.835 1.07615 11.8403C1.06869 11.8457 1.0625 11.8526 1.05803 11.8606C1.05357 11.8686 1.05092 11.8776 1.05029 11.8867C1.04966 11.8959 1.05107 11.9051 1.0544 11.9136C1.02872 11.9194 1.00558 11.9333 0.988412 11.9532C1.00641 11.9712 1.028 11.9844 1.0544 11.9892C1.0388 12.042 1.0604 12.0672 1.10599 12.0792C1.09778 12.0612 1.09568 12.0409 1.09999 12.0216C1.17197 12.0432 1.28355 12.0096 1.28355 11.8848C1.28355 11.7601 1.19717 11.6557 1.0352 11.6809C1.07359 11.6629 1.09279 11.6257 1.09759 11.5837C1.0676 11.5957 1.0352 11.5957 1.0352 11.5957C1.0544 11.5633 1.08079 11.5357 1.07959 11.4685C1.0496 11.4829 1.02081 11.5081 0.983613 11.4925C1.0436 11.3725 0.969216 11.2094 0.779655 11.171C0.849241 11.2526 0.882834 11.3389 0.882834 11.4265C0.882834 11.7085 0.80485 11.7553 0.80485 11.952C0.806084 11.9976 0.818151 12.0423 0.840054 12.0824C0.861958 12.1224 0.89307 12.1567 0.930824 12.1824V12.1788C0.907607 12.1835 0.885662 12.1932 0.866432 12.207C0.847201 12.2209 0.831121 12.2386 0.819247 12.2591C0.952898 12.296 1.09418 12.2947 1.22716 12.2556C1.27164 12.2493 1.31414 12.2331 1.35152 12.2081C1.3889 12.1832 1.4202 12.1502 1.44312 12.1116C1.46707 12.0569 1.47944 11.9979 1.47944 11.9382C1.47944 11.8785 1.46707 11.8195 1.44312 11.7649C1.36753 11.6089 1.01481 10.8578 0.904429 10.6227C0.880434 10.5723 0.867237 10.5195 0.867237 10.4619C0.867237 10.3179 0.99921 10.2676 1.07359 10.2676C1.16358 10.2676 1.25596 10.3359 1.25596 10.4211C1.25596 10.4751 1.22596 10.5087 1.18397 10.5087C1.08199 10.5087 1.08799 10.4223 1.10839 10.3671C1.0448 10.3959 1.00881 10.4463 1.01841 10.4991C0.979037 10.5057 0.943309 10.5261 0.917627 10.5567C0.941622 10.5879 0.972815 10.6119 1.01841 10.6131C0.99801 10.6959 1.0544 10.7307 1.10839 10.7499C1.09159 10.6899 1.07959 10.6191 1.18397 10.6191C1.25956 10.6191 1.31834 10.6071 1.35314 10.5567L1.36154 10.8806C1.36633 10.9778 1.23196 10.9766 1.14558 10.9466C1.17797 11.0582 1.24396 11.1194 1.39753 11.1038C1.374 11.1128 1.35392 11.1291 1.34014 11.1502C1.32635 11.1713 1.31957 11.1962 1.32074 11.2214C1.32074 11.3125 1.39513 11.4133 1.44312 11.4433L1.46711 10.4955V10.4943Z" fill="#FFEC2D"/>
<path d="M1.46711 9.76484C1.46711 10.0084 1.24876 10.1332 1.07719 10.1332C0.846841 10.1332 0.723267 9.99519 0.723267 9.81403C0.723267 9.71205 0.742463 9.64727 0.789253 9.55009L1.31954 8.44991C1.33875 8.40364 1.34697 8.35353 1.34354 8.30354C1.34354 8.20516 1.24756 8.12478 1.14798 8.12358C1.0568 8.11998 0.956019 8.20756 0.956019 8.30714C0.956019 8.42832 1.01961 8.48231 1.08439 8.48231C1.16358 8.48231 1.19477 8.44991 1.19477 8.39352C1.19477 8.35513 1.17677 8.33834 1.14918 8.33834C1.08079 8.33834 1.10119 8.42952 1.10119 8.42952C1.09216 8.42785 1.08361 8.4242 1.07615 8.41885C1.06869 8.41349 1.0625 8.40656 1.05803 8.39853C1.05357 8.39051 1.05092 8.3816 1.05029 8.37244C1.04966 8.36328 1.05107 8.35409 1.0544 8.34553C1.02872 8.33978 1.00558 8.32589 0.988412 8.30594C1.00641 8.28795 1.028 8.27475 1.0544 8.26995C1.0388 8.21716 1.0604 8.19197 1.10599 8.17997C1.09778 8.198 1.09568 8.21822 1.09999 8.23756C1.17197 8.21596 1.28355 8.24955 1.28355 8.37433C1.28355 8.4991 1.19717 8.60348 1.0352 8.57829C1.07359 8.59628 1.09279 8.63347 1.09759 8.67547C1.0676 8.66347 1.0352 8.66347 1.0352 8.66347C1.0544 8.69586 1.08079 8.72346 1.07959 8.79064C1.0496 8.77625 1.02081 8.75105 0.983613 8.76665C1.0436 8.88662 0.969216 9.04979 0.779655 9.08818C0.849241 9.0066 0.882834 8.92022 0.882834 8.83263C0.882834 8.55069 0.80485 8.5039 0.80485 8.30714C0.806084 8.26151 0.818151 8.21682 0.840054 8.17677C0.861958 8.13672 0.89307 8.10245 0.930824 8.07679V8.08039C0.907607 8.07562 0.885662 8.06599 0.866432 8.05214C0.847201 8.03829 0.831121 8.02052 0.819247 8.00001C0.952898 7.96317 1.09418 7.96442 1.22716 8.0036C1.27164 8.0099 1.31414 8.0261 1.35152 8.05102C1.3889 8.07594 1.4202 8.10894 1.44312 8.14757C1.46707 8.20223 1.47944 8.26126 1.47944 8.32094C1.47944 8.38062 1.46707 8.43965 1.44312 8.4943C1.36753 8.65027 1.01481 9.40132 0.904429 9.63647C0.880434 9.68686 0.867237 9.73965 0.867237 9.79724C0.867237 9.94121 0.99921 9.9916 1.07359 9.9916C1.16358 9.9916 1.25596 9.92321 1.25596 9.83803C1.25596 9.78404 1.22596 9.75044 1.18397 9.75044C1.08199 9.75044 1.08799 9.83683 1.10839 9.89202C1.0448 9.86322 1.00881 9.81283 1.01841 9.76004C0.979037 9.75343 0.943309 9.73302 0.917627 9.70245C0.941622 9.67126 0.972815 9.64727 1.01841 9.64607C0.99801 9.56328 1.0544 9.52849 1.10839 9.50929C1.09159 9.56928 1.07959 9.64007 1.18397 9.64007C1.25956 9.64007 1.31834 9.65207 1.35314 9.70245L1.36154 9.37852C1.36633 9.28134 1.23196 9.28254 1.14558 9.31254C1.17797 9.20096 1.24396 9.13977 1.39753 9.15537C1.374 9.14632 1.35392 9.13009 1.34014 9.10899C1.32635 9.08788 1.31957 9.06297 1.32074 9.03779C1.32074 8.94661 1.39513 8.84583 1.44312 8.81584L1.46711 9.76364V9.76484Z" fill="#FFEC2D"/>
<path d="M1.44316 13.1229C1.44316 13.1229 1.55834 13.2213 1.59793 13.1721C1.66032 13.0941 1.40357 12.7042 1.40357 12.5674C1.40357 12.3419 1.55474 12.2807 1.7395 12.2495C1.86428 12.2279 2.06703 12.2579 2.06703 12.2579C2.02864 12.3095 2.00345 12.3251 1.93986 12.3287C2.01185 12.3647 2.08383 12.4463 2.08383 12.5722C2.08383 12.7654 2.00465 12.8458 2.00465 13.0641C2.00465 13.1829 2.10303 13.3389 2.10303 13.3389C1.92786 13.3209 1.84148 13.1589 1.89067 13.0293C1.87717 13.0266 1.86321 13.0273 1.85003 13.0313C1.83685 13.0353 1.82485 13.0424 1.81509 13.0521C1.80309 13.0161 1.82229 12.9741 1.84988 12.9381C1.82828 12.9262 1.81149 12.9334 1.77789 12.9405C1.78029 12.9046 1.80189 12.8638 1.85708 12.8266C1.69871 12.8674 1.60273 12.7582 1.60273 12.643C1.60273 12.5554 1.66272 12.493 1.72271 12.493C1.7419 12.493 1.7707 12.5014 1.78629 12.5134C1.79829 12.4894 1.79109 12.457 1.78029 12.4331C1.82348 12.4451 1.85228 12.4714 1.83188 12.5254C1.86548 12.5278 1.89187 12.5398 1.90987 12.5614C1.89187 12.5854 1.86428 12.5974 1.83188 12.5974C1.85588 12.6478 1.82828 12.6754 1.78869 12.6982C1.78869 12.6982 1.81389 12.5974 1.7503 12.5974C1.72151 12.5974 1.69511 12.6058 1.69511 12.649C1.69511 12.6862 1.7275 12.7378 1.80309 12.7342C1.87747 12.7306 1.93866 12.6826 1.93866 12.5626C1.93866 12.4522 1.84868 12.3971 1.7311 12.3947C1.62553 12.3899 1.54514 12.4475 1.54514 12.5566C1.54514 12.703 1.7551 13.0341 1.7551 13.1637C1.7551 13.2609 1.66872 13.3161 1.58233 13.3161C1.47196 13.3161 1.37838 13.2057 1.37838 13.2057L1.44316 13.1241V13.1229Z" fill="#FFEC2D"/>
<path d="M1.41912 10.4943C1.41912 10.2508 1.63747 10.126 1.80904 10.126C2.03939 10.126 2.16296 10.264 2.16296 10.4451C2.16296 10.5471 2.14377 10.6119 2.09698 10.7091L1.56669 11.8092C1.54748 11.8555 1.53926 11.9056 1.54269 11.9556C1.54269 12.054 1.63867 12.1344 1.73825 12.1356C1.82943 12.1392 1.93021 12.0516 1.93021 11.952C1.93021 11.8308 1.86662 11.7768 1.80184 11.7768C1.72265 11.7768 1.69146 11.8092 1.69146 11.8656C1.69146 11.904 1.70946 11.9208 1.73705 11.9208C1.80544 11.9208 1.78504 11.8296 1.78504 11.8296C1.79407 11.8313 1.80262 11.835 1.81008 11.8403C1.81754 11.8457 1.82373 11.8526 1.8282 11.8606C1.83267 11.8686 1.83531 11.8776 1.83594 11.8867C1.83657 11.8959 1.83516 11.9051 1.83183 11.9136C1.85751 11.9194 1.88065 11.9333 1.89782 11.9532C1.87982 11.9712 1.85823 11.9844 1.83183 11.9892C1.84743 12.042 1.82583 12.0672 1.78024 12.0792C1.78845 12.0612 1.79055 12.0409 1.78624 12.0216C1.71426 12.0432 1.60268 12.0096 1.60268 11.8848C1.60268 11.7601 1.68906 11.6557 1.85103 11.6809C1.81264 11.6629 1.79344 11.6257 1.78864 11.5837C1.81863 11.5957 1.85103 11.5957 1.85103 11.5957C1.83183 11.5633 1.80544 11.5357 1.80664 11.4685C1.83663 11.4829 1.86543 11.5081 1.90262 11.4925C1.84263 11.3725 1.91701 11.2094 2.10658 11.171C2.03699 11.2526 2.0034 11.3389 2.0034 11.4265C2.0034 11.7085 2.08138 11.7553 2.08138 11.952C2.08015 11.9976 2.06808 12.0423 2.04618 12.0824C2.02427 12.1224 1.99316 12.1567 1.95541 12.1824V12.1788C1.97862 12.1835 2.00057 12.1932 2.0198 12.207C2.03903 12.2209 2.05511 12.2386 2.06698 12.2591C1.93333 12.296 1.79205 12.2947 1.65907 12.2556C1.61459 12.2493 1.57209 12.2331 1.53471 12.2081C1.49733 12.1832 1.46603 12.1502 1.44311 12.1116C1.41916 12.0569 1.40679 11.9979 1.40679 11.9382C1.40679 11.8785 1.41916 11.8195 1.44311 11.7649C1.5187 11.6089 1.87142 10.8578 1.9818 10.6227C2.0058 10.5723 2.01899 10.5195 2.01899 10.4619C2.01899 10.3179 1.88702 10.2676 1.81264 10.2676C1.72265 10.2676 1.63027 10.3359 1.63027 10.4211C1.63027 10.4751 1.66027 10.5087 1.70226 10.5087C1.80424 10.5087 1.79824 10.4223 1.77784 10.3671C1.84143 10.3959 1.87742 10.4463 1.86782 10.4991C1.90719 10.5057 1.94292 10.5261 1.9686 10.5567C1.94461 10.5879 1.91342 10.6119 1.86782 10.6131C1.88822 10.6959 1.83183 10.7307 1.77784 10.7499C1.79464 10.6899 1.80664 10.6191 1.70226 10.6191C1.62667 10.6191 1.56789 10.6071 1.53309 10.5567L1.5247 10.8806C1.5199 10.9778 1.65427 10.9766 1.74065 10.9466C1.70826 11.0582 1.64227 11.1194 1.4887 11.1038C1.51223 11.1128 1.53231 11.1291 1.54609 11.1502C1.55988 11.1713 1.56666 11.1962 1.56549 11.2214C1.56549 11.3125 1.4911 11.4133 1.44311 11.4433L1.41912 10.4955V10.4943Z" fill="#FFEC2D"/>
<path d="M1.41912 9.76484C1.41912 10.0084 1.63747 10.1332 1.80904 10.1332C2.03939 10.1332 2.16296 9.99519 2.16296 9.81403C2.16296 9.71205 2.14377 9.64727 2.09698 9.55009L1.56669 8.44991C1.54748 8.40364 1.53926 8.35353 1.54269 8.30354C1.54269 8.20516 1.63867 8.12478 1.73825 8.12358C1.82943 8.11998 1.93021 8.20756 1.93021 8.30714C1.93021 8.42832 1.86662 8.48231 1.80184 8.48231C1.72265 8.48231 1.69146 8.44991 1.69146 8.39352C1.69146 8.35513 1.70946 8.33834 1.73705 8.33834C1.80544 8.33834 1.78504 8.42952 1.78504 8.42952C1.79407 8.42785 1.80262 8.4242 1.81008 8.41885C1.81754 8.41349 1.82373 8.40656 1.8282 8.39853C1.83267 8.39051 1.83531 8.3816 1.83594 8.37244C1.83657 8.36328 1.83516 8.35409 1.83183 8.34553C1.85751 8.33978 1.88065 8.32589 1.89782 8.30594C1.87982 8.28795 1.85823 8.27475 1.83183 8.26995C1.84743 8.21716 1.82583 8.19197 1.78024 8.17997C1.78845 8.198 1.79055 8.21822 1.78624 8.23756C1.71426 8.21596 1.60268 8.24955 1.60268 8.37433C1.60268 8.4991 1.68906 8.60348 1.85103 8.57829C1.81264 8.59628 1.79344 8.63347 1.78864 8.67547C1.81863 8.66347 1.85103 8.66347 1.85103 8.66347C1.83183 8.69586 1.80544 8.72346 1.80664 8.79064C1.83663 8.77625 1.86543 8.75105 1.90262 8.76665C1.84263 8.88662 1.91701 9.04979 2.10658 9.08818C2.03699 9.0066 2.0034 8.92022 2.0034 8.83263C2.0034 8.55069 2.08138 8.5039 2.08138 8.30714C2.08015 8.26151 2.06808 8.21682 2.04618 8.17677C2.02427 8.13672 1.99316 8.10245 1.95541 8.07679V8.08039C1.97862 8.07562 2.00057 8.06599 2.0198 8.05214C2.03903 8.03829 2.05511 8.02052 2.06698 8.00001C1.93333 7.96317 1.79205 7.96442 1.65907 8.0036C1.61459 8.0099 1.57209 8.0261 1.53471 8.05102C1.49733 8.07594 1.46603 8.10894 1.44311 8.14757C1.41916 8.20223 1.40679 8.26126 1.40679 8.32094C1.40679 8.38062 1.41916 8.43965 1.44311 8.4943C1.5187 8.65027 1.87142 9.40132 1.9818 9.63647C2.0058 9.68686 2.01899 9.73965 2.01899 9.79724C2.01899 9.94121 1.88702 9.9916 1.81264 9.9916C1.72265 9.9916 1.63027 9.92321 1.63027 9.83803C1.63027 9.78404 1.66027 9.75044 1.70226 9.75044C1.80424 9.75044 1.79824 9.83683 1.77784 9.89202C1.84143 9.86322 1.87742 9.81283 1.86782 9.76004C1.90719 9.75343 1.94292 9.73302 1.9686 9.70245C1.94461 9.67126 1.91342 9.64727 1.86782 9.64607C1.88822 9.56328 1.83183 9.52849 1.77784 9.50929C1.79464 9.56928 1.80664 9.64007 1.70226 9.64007C1.62667 9.64007 1.56789 9.65207 1.53309 9.70245L1.5247 9.37852C1.5199 9.28134 1.65427 9.28254 1.74065 9.31254C1.70826 9.20096 1.64227 9.13977 1.4887 9.15537C1.51223 9.14632 1.53231 9.13009 1.54609 9.10899C1.55988 9.08788 1.56666 9.06297 1.56549 9.03779C1.56549 8.94661 1.4911 8.84583 1.44311 8.81584L1.41912 9.76364V9.76484Z" fill="#FFEC2D"/>
</svg>
