<svg width="16" height="16" viewBox="0 0 16 16" fill="none" xmlns="http://www.w3.org/2000/svg">
<g clip-path="url(#clip0_154_506)">
<mask id="mask0_154_506" style="mask-type:luminance" maskUnits="userSpaceOnUse" x="0" y="2" width="16" height="12">
<path d="M14.8571 2.28577H1.14286C0.511675 2.28577 0 2.79744 0 3.42862V12.5715C0 13.2027 0.511675 13.7143 1.14286 13.7143H14.8571C15.4883 13.7143 16 13.2027 16 12.5715V3.42862C16 2.79744 15.4883 2.28577 14.8571 2.28577Z" fill="white"/>
</mask>
<g mask="url(#mask0_154_506)">
<path d="M14.8571 2.28577H1.14286C0.511675 2.28577 0 2.79744 0 3.42862V12.5715C0 13.2027 0.511675 13.7143 1.14286 13.7143H14.8571C15.4883 13.7143 16 13.2027 16 12.5715V3.42862C16 2.79744 15.4883 2.28577 14.8571 2.28577Z" fill="white"/>
<mask id="mask1_154_506" style="mask-type:alpha" maskUnits="userSpaceOnUse" x="0" y="2" width="16" height="12">
<path d="M14.8571 2.28577H1.14286C0.511675 2.28577 0 2.79744 0 3.42862V12.5715C0 13.2027 0.511675 13.7143 1.14286 13.7143H14.8571C15.4883 13.7143 16 13.2027 16 12.5715V3.42862C16 2.79744 15.4883 2.28577 14.8571 2.28577Z" fill="white"/>
</mask>
<g mask="url(#mask1_154_506)">
<path fill-rule="evenodd" clip-rule="evenodd" d="M16 2.28577H0V3.04767H16V2.28577ZM16 3.80958H0V4.57148H16V3.80958ZM0 5.33338H16V6.09529H0V5.33338ZM16 6.8572H0V7.6191H16V6.8572ZM0 8.38102H16V9.14291H0V8.38102ZM16 9.9048H0V10.6667H16V9.9048ZM0 11.4286H16V12.1905H0V11.4286ZM16 12.9525H0V13.7143H16V12.9525Z" fill="#D02F44"/>
<path d="M6.85714 2.28577H0V7.6191H6.85714V2.28577Z" fill="#46467F"/>
<g filter="url(#filter0_d_154_506)">
<path fill-rule="evenodd" clip-rule="evenodd" d="M1.52375 3.42868C1.52375 3.63907 1.35319 3.80963 1.1428 3.80963C0.932401 3.80963 0.761841 3.63907 0.761841 3.42868C0.761841 3.21829 0.932401 3.04773 1.1428 3.04773C1.35319 3.04773 1.52375 3.21829 1.52375 3.42868ZM3.04756 3.42868C3.04756 3.63907 2.877 3.80963 2.66661 3.80963C2.45621 3.80963 2.28565 3.63907 2.28565 3.42868C2.28565 3.21829 2.45621 3.04773 2.66661 3.04773C2.877 3.04773 3.04756 3.21829 3.04756 3.42868ZM4.19041 3.80963C4.40081 3.80963 4.57137 3.63907 4.57137 3.42868C4.57137 3.21829 4.40081 3.04773 4.19041 3.04773C3.98002 3.04773 3.80946 3.21829 3.80946 3.42868C3.80946 3.63907 3.98002 3.80963 4.19041 3.80963ZM6.09515 3.42868C6.09515 3.63907 5.92464 3.80963 5.71422 3.80963C5.50383 3.80963 5.33327 3.63907 5.33327 3.42868C5.33327 3.21829 5.50383 3.04773 5.71422 3.04773C5.92464 3.04773 6.09515 3.21829 6.09515 3.42868ZM1.9047 4.57153C2.11509 4.57153 2.28565 4.40098 2.28565 4.19059C2.28565 3.98019 2.11509 3.80963 1.9047 3.80963C1.6943 3.80963 1.52375 3.98019 1.52375 4.19059C1.52375 4.40098 1.6943 4.57153 1.9047 4.57153ZM3.80946 4.19059C3.80946 4.40098 3.6389 4.57153 3.42851 4.57153C3.21812 4.57153 3.04756 4.40098 3.04756 4.19059C3.04756 3.98019 3.21812 3.80963 3.42851 3.80963C3.6389 3.80963 3.80946 3.98019 3.80946 4.19059ZM4.95232 4.57153C5.16271 4.57153 5.33327 4.40098 5.33327 4.19059C5.33327 3.98019 5.16271 3.80963 4.95232 3.80963C4.74193 3.80963 4.57137 3.98019 4.57137 4.19059C4.57137 4.40098 4.74193 4.57153 4.95232 4.57153ZM6.09515 4.95249C6.09515 5.16288 5.92464 5.33344 5.71422 5.33344C5.50383 5.33344 5.33327 5.16288 5.33327 4.95249C5.33327 4.74209 5.50383 4.57153 5.71422 4.57153C5.92464 4.57153 6.09515 4.74209 6.09515 4.95249ZM4.19041 5.33344C4.40081 5.33344 4.57137 5.16288 4.57137 4.95249C4.57137 4.74209 4.40081 4.57153 4.19041 4.57153C3.98002 4.57153 3.80946 4.74209 3.80946 4.95249C3.80946 5.16288 3.98002 5.33344 4.19041 5.33344ZM3.04756 4.95249C3.04756 5.16288 2.877 5.33344 2.66661 5.33344C2.45621 5.33344 2.28565 5.16288 2.28565 4.95249C2.28565 4.74209 2.45621 4.57153 2.66661 4.57153C2.877 4.57153 3.04756 4.74209 3.04756 4.95249ZM1.1428 5.33344C1.35319 5.33344 1.52375 5.16288 1.52375 4.95249C1.52375 4.74209 1.35319 4.57153 1.1428 4.57153C0.932401 4.57153 0.761841 4.74209 0.761841 4.95249C0.761841 5.16288 0.932401 5.33344 1.1428 5.33344ZM2.28565 5.71439C2.28565 5.92479 2.11509 6.09535 1.9047 6.09535C1.6943 6.09535 1.52375 5.92479 1.52375 5.71439C1.52375 5.504 1.6943 5.33344 1.9047 5.33344C2.11509 5.33344 2.28565 5.504 2.28565 5.71439ZM3.42851 6.09535C3.6389 6.09535 3.80946 5.92479 3.80946 5.71439C3.80946 5.504 3.6389 5.33344 3.42851 5.33344C3.21812 5.33344 3.04756 5.504 3.04756 5.71439C3.04756 5.92479 3.21812 6.09535 3.42851 6.09535ZM5.33327 5.71439C5.33327 5.92479 5.16271 6.09535 4.95232 6.09535C4.74193 6.09535 4.57137 5.92479 4.57137 5.71439C4.57137 5.504 4.74193 5.33344 4.95232 5.33344C5.16271 5.33344 5.33327 5.504 5.33327 5.71439ZM5.71422 6.85725C5.92464 6.85725 6.09515 6.6867 6.09515 6.4763C6.09515 6.26591 5.92464 6.09535 5.71422 6.09535C5.50383 6.09535 5.33327 6.26591 5.33327 6.4763C5.33327 6.6867 5.50383 6.85725 5.71422 6.85725ZM4.57137 6.4763C4.57137 6.6867 4.40081 6.85725 4.19041 6.85725C3.98002 6.85725 3.80946 6.6867 3.80946 6.4763C3.80946 6.26591 3.98002 6.09535 4.19041 6.09535C4.40081 6.09535 4.57137 6.26591 4.57137 6.4763ZM2.66661 6.85725C2.877 6.85725 3.04756 6.6867 3.04756 6.4763C3.04756 6.26591 2.877 6.09535 2.66661 6.09535C2.45621 6.09535 2.28565 6.26591 2.28565 6.4763C2.28565 6.6867 2.45621 6.85725 2.66661 6.85725ZM1.52375 6.4763C1.52375 6.6867 1.35319 6.85725 1.1428 6.85725C0.932401 6.85725 0.761841 6.6867 0.761841 6.4763C0.761841 6.26591 0.932401 6.09535 1.1428 6.09535C1.35319 6.09535 1.52375 6.26591 1.52375 6.4763Z" fill="url(#paint0_linear_154_506)"/>
</g>
</g>
</g>
</g>
<defs>
<filter id="filter0_d_154_506" x="0.761841" y="3.04773" width="5.33325" height="32.381" filterUnits="userSpaceOnUse" color-interpolation-filters="sRGB">
<feFlood flood-opacity="0" result="BackgroundImageFix"/>
<feColorMatrix in="SourceAlpha" type="matrix" values="0 0 0 0 0 0 0 0 0 0 0 0 0 0 0 0 0 0 127 0" result="hardAlpha"/>
<feOffset dy="28.5714"/>
<feColorMatrix type="matrix" values="0 0 0 0 0 0 0 0 0 0 0 0 0 0 0 0 0 0 0.06 0"/>
<feBlend mode="normal" in2="BackgroundImageFix" result="effect1_dropShadow_154_506"/>
<feBlend mode="normal" in="SourceGraphic" in2="effect1_dropShadow_154_506" result="shape"/>
</filter>
<linearGradient id="paint0_linear_154_506" x1="0.761841" y1="3.04773" x2="0.761841" y2="6.85725" gradientUnits="userSpaceOnUse">
<stop stop-color="white"/>
<stop offset="1" stop-color="#F0F0F0"/>
</linearGradient>
<clipPath id="clip0_154_506">
<rect width="16" height="16" fill="white"/>
</clipPath>
</defs>
</svg>
