<svg width="24" height="24" viewBox="0 0 24 24" fill="none" xmlns="http://www.w3.org/2000/svg">
<rect width="24" height="24" rx="4" fill="#363440"/>
<path d="M12 5C12.9283 5 13.8185 5.36875 14.4749 6.02513C15.1313 6.6815 15.5 7.57174 15.5 8.5C15.5 9.42826 15.1313 10.3185 14.4749 10.9749C13.8185 11.6313 12.9283 12 12 12C11.0717 12 10.1815 11.6313 9.52513 10.9749C8.86875 10.3185 8.5 9.42826 8.5 8.5C8.5 7.57174 8.86875 6.6815 9.52513 6.02513C10.1815 5.36875 11.0717 5 12 5ZM12 19C12 19 19 19 19 17.25C19 15.15 15.5875 12.875 12 12.875C8.4125 12.875 5 15.15 5 17.25C5 19 12 19 12 19Z" fill="url(#paint0_linear_43_154)"/>
<defs>
<linearGradient id="paint0_linear_43_154" x1="5" y1="12" x2="19" y2="12" gradientUnits="userSpaceOnUse">
<stop stop-color="#807EEE"/>
<stop offset="1" stop-color="#4045C9"/>
</linearGradient>
</defs>
</svg>
