<svg width="28" height="28" viewBox="0 0 28 28" fill="none" xmlns="http://www.w3.org/2000/svg">
<path d="M19.9514 8.04445C19.1774 7.26655 18.2555 6.64977 17.2394 6.2301C16.2234 5.81042 15.1335 5.59624 14.0334 5.60006C9.42393 5.60006 5.66715 9.33804 5.66715 13.9244C5.66715 15.3944 6.05549 16.8224 6.78152 18.0824L5.59961 22.4L10.0318 21.2408C11.2559 21.9044 12.632 22.2572 14.0334 22.2572C18.6428 22.2572 22.3996 18.5192 22.3996 13.9328C22.3996 11.7068 21.5301 9.61524 19.9514 8.04445ZM14.0334 20.846C12.7839 20.846 11.5598 20.51 10.4876 19.88L10.2344 19.7288L7.60041 20.4176L8.30112 17.864L8.13227 17.6036C7.43811 16.5007 7.06952 15.2258 7.06855 13.9244C7.06855 10.1108 10.1922 7.00285 14.0249 7.00285C15.8822 7.00285 17.6298 7.72525 18.9383 9.03565C19.5862 9.67737 20.0997 10.4407 20.4489 11.2813C20.7982 12.122 20.9763 13.0232 20.9729 13.9328C20.9898 17.7464 17.8661 20.846 14.0334 20.846ZM17.8493 15.6716C17.6382 15.5708 16.6083 15.0668 16.4225 14.9912C16.2284 14.924 16.0933 14.8904 15.9498 15.092C15.8062 15.302 15.4095 15.7724 15.2913 15.9068C15.1731 16.0496 15.0464 16.0664 14.8354 15.9572C14.6243 15.8564 13.949 15.6296 13.1554 14.924C12.5307 14.3696 12.117 13.6892 11.9904 13.4792C11.8722 13.2692 11.9735 13.16 12.0832 13.0508C12.1761 12.9584 12.2943 12.8072 12.3956 12.6896C12.4969 12.572 12.5391 12.4796 12.6066 12.3452C12.6742 12.2024 12.6404 12.0848 12.5898 11.984C12.5391 11.8832 12.117 10.8584 11.9482 10.4384C11.7793 10.0352 11.602 10.0856 11.4754 10.0772H11.0702C10.9266 10.0772 10.7071 10.1276 10.513 10.3376C10.3272 10.5476 9.78695 11.0516 9.78695 12.0764C9.78695 13.1012 10.5383 14.0924 10.6396 14.2268C10.7409 14.3696 12.117 16.4696 14.2107 17.3684C14.7088 17.5868 15.0971 17.7128 15.401 17.8052C15.8991 17.9648 16.355 17.9396 16.718 17.8892C17.1232 17.8304 17.959 17.3852 18.1278 16.898C18.3051 16.4108 18.3051 15.9992 18.246 15.9068C18.1869 15.8144 18.0603 15.7724 17.8493 15.6716Z" fill="#35B63A"/>
</svg>
