<svg width="24" height="24" viewBox="0 0 24 24" fill="none" xmlns="http://www.w3.org/2000/svg">
<rect width="24" height="24" rx="4" fill="#363440"/>
<path opacity="0.2" d="M18.506 11.9999C15.253 18.9344 13.6265 15.4675 12 11.9999H18.506ZM5.49402 11.9999H12C10.3735 8.53238 8.747 5.06545 5.49402 11.9999Z" fill="url(#paint0_linear_43_138)"/>
<path d="M18.959 12.2127C17.5827 15.1404 16.3691 16.5041 15.1304 16.5041C13.5603 16.5041 12.5825 14.4197 11.5472 12.2127C10.7302 10.4711 9.80431 8.49677 8.8722 8.49677C7.84626 8.49677 6.60074 10.8245 5.94952 12.2127C5.89158 12.3303 5.7898 12.4205 5.66606 12.4638C5.54233 12.5072 5.40652 12.5002 5.28785 12.4445C5.16918 12.3888 5.07711 12.2887 5.03145 12.1658C4.98579 12.0429 4.99018 11.907 5.04369 11.7873C6.41432 8.8596 7.63106 7.49585 8.8722 7.49585C10.4424 7.49585 11.4202 9.58026 12.4555 11.7873C13.27 13.5289 14.1958 15.5032 15.1279 15.5032C16.1539 15.5032 17.3994 13.1754 18.0506 11.7873C18.1086 11.6697 18.2103 11.5795 18.3341 11.5361C18.4578 11.4928 18.5936 11.4997 18.7123 11.5555C18.831 11.6112 18.923 11.7113 18.9687 11.8342C19.0143 11.9571 19.01 12.093 18.9565 12.2127H18.959Z" fill="url(#paint1_linear_43_138)"/>
<defs>
<linearGradient id="paint0_linear_43_138" x1="5.49402" y1="11.9999" x2="18.506" y2="11.9999" gradientUnits="userSpaceOnUse">
<stop stop-color="#807EEE"/>
<stop offset="1" stop-color="#4045C9"/>
</linearGradient>
<linearGradient id="paint1_linear_43_138" x1="5.00012" y1="12" x2="19" y2="12" gradientUnits="userSpaceOnUse">
<stop stop-color="#807EEE"/>
<stop offset="1" stop-color="#4045C9"/>
</linearGradient>
</defs>
</svg>
