<svg width="24" height="24" viewBox="0 0 24 24" fill="none" xmlns="http://www.w3.org/2000/svg">
<rect width="24" height="24" rx="4" fill="#363440"/>
<path d="M15.75 9.66667H15.125V8.33333C15.125 6.49333 13.725 5 12 5C10.275 5 8.875 6.49333 8.875 8.33333V9.66667H8.25C7.5625 9.66667 7 10.2667 7 11V17.6667C7 18.4 7.5625 19 8.25 19H15.75C16.4375 19 17 18.4 17 17.6667V11C17 10.2667 16.4375 9.66667 15.75 9.66667ZM12 15.6667C11.3125 15.6667 10.75 15.0667 10.75 14.3333C10.75 13.6 11.3125 13 12 13C12.6875 13 13.25 13.6 13.25 14.3333C13.25 15.0667 12.6875 15.6667 12 15.6667ZM13.9375 9.66667H10.0625V8.33333C10.0625 7.19333 10.9313 6.26667 12 6.26667C13.0687 6.26667 13.9375 7.19333 13.9375 8.33333V9.66667Z" fill="url(#paint0_linear_43_131)"/>
<defs>
<linearGradient id="paint0_linear_43_131" x1="7" y1="12" x2="17" y2="12" gradientUnits="userSpaceOnUse">
<stop stop-color="#807EEE"/>
<stop offset="1" stop-color="#4045C9"/>
</linearGradient>
</defs>
</svg>
