<svg width="156" height="64" viewBox="0 0 156 64" fill="none" xmlns="http://www.w3.org/2000/svg">
<path d="M95.7031 20.4531H104.859C108.286 20.4531 110.943 21.4167 112.828 23.3438C114.724 25.2708 115.672 28.0208 115.672 31.5938C115.672 35.1875 114.719 37.9896 112.812 40C110.917 42 108.266 43 104.859 43H95.7031V20.4531ZM101.438 25.0781V38.375H104.109C105.984 38.375 107.406 37.8073 108.375 36.6719C109.354 35.5365 109.844 33.849 109.844 31.6094C109.844 29.5052 109.344 27.8906 108.344 26.7656C107.344 25.6406 105.932 25.0781 104.109 25.0781H101.438Z" fill="white"/>
<path d="M124.188 43H118.453V20.4531H133.797V25.0781H124.188V30.2031H132.922V34.5938H124.188V43Z" fill="white"/>
<path d="M135.609 36.4688H141.062C141.167 37.2292 141.599 37.849 142.359 38.3281C143.13 38.8073 144.052 39.0469 145.125 39.0469C146.229 39.0469 147.12 38.8281 147.797 38.3906C148.474 37.9427 148.812 37.375 148.812 36.6875C148.812 36.0625 148.547 35.5781 148.016 35.2344C147.495 34.8802 146.589 34.5677 145.297 34.2969L142.344 33.7188C140.271 33.3229 138.703 32.5781 137.641 31.4844C136.578 30.3802 136.047 28.9688 136.047 27.25C136.047 25.0833 136.88 23.3438 138.547 22.0312C140.224 20.7188 142.38 20.0625 145.016 20.0625C147.807 20.0625 150 20.6927 151.594 21.9531C153.198 23.2031 154.016 24.8958 154.047 27.0312H148.766C148.714 26.2188 148.349 25.5781 147.672 25.1094C146.995 24.6406 146.13 24.4062 145.078 24.4062C144.078 24.4062 143.271 24.6146 142.656 25.0312C142.052 25.4479 141.75 26 141.75 26.6875C141.75 27.2917 142.01 27.7812 142.531 28.1562C143.062 28.5208 143.922 28.8229 145.109 29.0625L148.031 29.6094C150.25 30.0365 151.88 30.7708 152.922 31.8125C153.964 32.8542 154.484 34.2656 154.484 36.0469C154.484 38.2865 153.625 40.0729 151.906 41.4062C150.188 42.7292 147.875 43.3906 144.969 43.3906C142.083 43.3906 139.807 42.7812 138.141 41.5625C136.484 40.3438 135.641 38.6458 135.609 36.4688Z" fill="white"/>
<path d="M1.46486 34.2044C-3.48383 22.7773 4.70948 9.99846 16.9837 10L49.8511 10.0041C52.2365 10.0044 53.4772 12.8907 51.8559 14.6678L45.6407 21.4805C43.7252 20.2305 41.446 19.5055 39.0001 19.5055C32.2062 19.5055 26.6986 25.0995 26.6986 32C26.6986 34.8219 27.6196 37.4252 29.173 39.5169C20.7818 48.1232 6.3339 45.4475 1.46486 34.2044Z" fill="url(#paint0_linear_85_6)"/>
<path d="M32.3594 42.5194L26.1441 49.3322C24.5228 51.1093 25.7635 53.9956 28.1489 53.9959L61.0163 54C73.2905 54.0015 81.4838 41.2227 76.5351 29.7956C71.6661 18.5525 57.2183 15.8768 48.8271 24.483C50.3805 26.5747 51.3015 29.1781 51.3015 32C51.3015 38.9005 45.794 44.4945 39.0001 44.4945C36.5541 44.4945 34.2749 43.7695 32.3594 42.5194Z" fill="url(#paint1_linear_85_6)"/>
<path d="M32.3594 42.5194L26.1441 49.3322C24.5228 51.1093 25.7635 53.9956 28.1489 53.9959L61.0163 54C73.2905 54.0015 81.4838 41.2227 76.5351 29.7956C71.6661 18.5525 57.2183 15.8768 48.8271 24.483C50.3805 26.5747 51.3015 29.1781 51.3015 32C51.3015 38.9005 45.794 44.4945 39.0001 44.4945C36.5541 44.4945 34.2749 43.7695 32.3594 42.5194Z" fill="url(#paint2_linear_85_6)"/>
<defs>
<linearGradient id="paint0_linear_85_6" x1="4.35859e-07" y1="32" x2="78" y2="32" gradientUnits="userSpaceOnUse">
<stop stop-color="#807EEE"/>
<stop offset="1" stop-color="#4045C9"/>
</linearGradient>
<linearGradient id="paint1_linear_85_6" x1="4.35859e-07" y1="32" x2="78" y2="32" gradientUnits="userSpaceOnUse">
<stop stop-color="#807EEE"/>
<stop offset="1" stop-color="#4045C9"/>
</linearGradient>
<linearGradient id="paint2_linear_85_6" x1="4.35859e-07" y1="32" x2="78" y2="32" gradientUnits="userSpaceOnUse">
<stop stop-color="#807EEE"/>
<stop offset="1" stop-color="#4045C9"/>
</linearGradient>
</defs>
</svg>
