<svg width="1440" height="839" viewBox="0 0 1440 839" fill="none" xmlns="http://www.w3.org/2000/svg">
<mask id="mask0_45_104" style="mask-type:alpha" maskUnits="userSpaceOnUse" x="0" y="0" width="1440" height="839">
<g style="mix-blend-mode:soft-light">
<path d="M1440 482.993V483.379C1384.32 481.793 1289.32 444.375 1130.9 349.599C1070.55 315.338 954.01 266.77 858.307 257.902C819.26 254.283 783.687 257.275 756.828 270.548C729.995 283.809 711.857 307.342 707.641 344.815C703.076 385.392 714.82 442.303 749.504 520.198L749.507 520.201C768.653 565.23 777.328 627.378 766.721 683.532C759.904 719.63 745.118 753.253 720.022 778.268C694.925 803.282 659.524 819.685 611.477 821.334C548.19 823.503 462.956 800.071 350.426 736.994C282.47 699.202 218.041 763.223 155.574 839H155.033C217.681 762.972 282.314 698.638 350.631 736.631C463.086 799.669 548.247 823.086 611.463 820.917C659.389 819.271 694.701 802.917 719.725 777.971C744.755 753.023 759.503 719.478 766.309 683.458C776.899 627.386 768.236 565.331 749.118 520.368C714.403 442.401 702.647 385.418 707.22 344.774C711.454 307.137 729.678 283.501 756.638 270.18C783.572 256.87 819.223 253.866 858.342 257.491C954.11 266.364 1070.72 314.961 1131.11 349.243L1131.11 349.246C1289.55 444.027 1384.45 481.422 1440 482.993ZM1440 463.698V464.096C1387.29 469.303 1292 435.542 1124.18 335.993C1056.24 299.26 939.964 252.525 845.106 244.426C805.376 241.033 769.411 244.417 742.344 258.156C715.298 271.88 697.131 295.951 692.958 333.939C688.578 373.834 699.623 429.068 732.02 503.775L732.023 503.781C750.115 549.607 758.475 612.045 747.972 668.188C741.175 704.527 726.479 738.231 701.405 763.102C676.329 787.975 640.885 804.007 592.593 804.991C531.517 806.234 449.881 783.398 342.688 723.911C270.665 684.554 202.922 758.061 137.272 839H136.734C202.562 757.822 270.498 683.984 342.889 723.543V723.546C450.016 782.995 531.578 805.817 592.585 804.574C640.756 803.593 676.107 787.607 701.112 762.805C726.119 738.001 740.778 704.372 747.56 668.11C758.046 612.045 749.7 549.696 731.631 503.934C699.205 429.157 688.152 373.852 692.541 333.89C696.731 295.744 714.982 271.569 742.151 257.782C769.295 244.005 805.339 240.61 845.137 244.008C940.062 252.113 1056.41 298.874 1124.38 335.625L1124.38 335.631C1292.27 435.214 1387.45 468.938 1440 463.698ZM1440 442.252V442.675C1391.16 456.267 1296.27 427.497 1117.45 322.378C1042.13 283.254 926.128 238.3 832.111 230.908C791.676 227.729 755.307 231.501 728.008 245.674C700.731 259.836 682.498 284.393 678.293 322.801C674.002 362.003 684.318 415.632 714.532 487.346L714.535 487.355C731.562 533.992 739.614 596.724 729.226 652.864C722.461 689.431 707.871 723.203 682.85 747.919C657.822 772.637 622.364 788.295 573.865 788.617C515.003 789.011 436.921 766.816 334.946 710.823C258.851 669.975 187.879 753.46 119.085 839H118.549C187.516 753.236 258.67 669.402 335.145 710.455V710.457C437.051 766.414 515.064 788.594 573.862 788.2C622.24 787.878 657.603 772.266 682.556 747.62C707.514 722.968 722.064 689.275 728.814 652.786C739.188 596.724 731.15 534.078 714.144 487.502C683.901 415.718 673.576 362.02 677.876 322.752C682.098 284.189 700.412 259.528 727.812 245.303C755.189 231.09 791.63 227.309 832.14 230.494C926.226 237.891 1042.29 282.868 1117.65 322.016L1117.65 322.021C1296.59 427.201 1391.35 455.907 1440 442.252ZM1440 417.631V418.103C1396.29 442.352 1302.95 420.69 1110.72 308.766C1028.24 267.337 912.541 224.101 819.35 217.351C778.149 214.367 741.357 218.516 713.795 233.109C686.257 247.688 667.931 272.706 663.634 311.471C659.363 349.979 668.928 402.048 697.042 470.917L697.045 470.929C712.997 518.394 720.744 581.429 710.483 637.56C703.758 674.343 689.301 708.167 664.351 732.716C639.399 757.27 603.961 772.545 555.283 772.217C498.639 771.837 424.059 750.33 327.196 697.731C247.959 655.957 174.654 747.22 103.536 835.758L100.932 838.997H100.397L103.21 835.496C174.433 746.828 247.849 655.428 327.392 697.366H327.395C424.192 749.927 498.706 771.42 555.286 771.8C603.84 772.125 639.18 756.899 664.058 732.419C688.938 707.934 703.361 674.187 710.068 637.485C720.318 581.426 712.583 518.475 696.65 471.067C668.51 402.132 658.937 349.997 663.214 311.424C667.531 272.504 685.937 247.386 713.593 232.741C741.23 218.108 778.1 213.947 819.373 216.937C912.627 223.689 1028.4 266.948 1110.91 308.401L1110.92 308.406C1303.35 420.442 1396.53 442.001 1440 417.631ZM1440 387.898V388.502C1403.3 426.93 1313.6 415.951 1104 295.16C1014.62 251.521 899.226 209.931 806.856 203.753C764.823 200.939 727.561 205.462 699.706 220.464C671.874 235.454 653.425 260.918 648.981 300.002C644.681 337.809 653.482 388.356 679.561 454.486L679.563 454.503C694.427 502.814 701.878 566.153 691.752 622.282C685.079 659.266 670.774 693.125 645.928 717.501C621.079 741.88 585.693 756.766 536.871 755.799C482.448 754.721 411.321 733.944 319.458 684.646C239.955 643.487 166.798 734.488 95.7944 822.807C91.4398 828.225 87.0939 833.631 82.7538 838.997H82.2181C86.6273 833.545 91.0453 828.052 95.4718 822.545C166.582 734.094 239.846 642.958 319.653 684.278L319.656 684.28C411.456 733.544 482.52 754.306 536.88 755.382C585.581 756.346 620.863 741.505 645.637 717.202C670.414 692.895 684.681 659.113 691.34 622.207C701.454 566.15 694.012 502.889 679.166 454.632C653.067 388.439 644.26 337.826 648.563 299.953C653.024 260.719 671.554 235.149 699.507 220.096C727.438 205.054 764.774 200.519 806.885 203.333C899.316 209.516 1014.77 251.127 1104.18 294.78L1104.19 294.788C1314.17 415.801 1403.63 426.562 1440 387.898ZM1440 347.775V348.814C1438.87 351.369 1437.64 353.829 1436.29 356.185C1406.43 408.51 1322.38 409.869 1097.26 281.542C1001.28 235.817 886.223 195.801 794.671 190.109C751.707 187.439 713.925 192.328 685.729 207.735C659.051 222.316 640.955 246.33 635.177 282.286C634.854 284.295 634.57 286.342 634.325 288.427C629.958 325.529 637.985 374.582 662.07 438.06L662.073 438.065V438.077C675.837 487.251 683.002 550.904 673.02 607.027C666.411 644.204 652.278 678.08 627.565 702.269C602.846 726.463 567.549 740.959 518.615 739.365C466.418 737.664 398.689 717.653 311.719 671.56C231.952 631.017 158.941 721.753 88.0501 809.857C80.1589 819.665 72.2936 829.439 64.4485 838.994H63.9071C71.8242 829.353 79.7615 819.49 87.7246 809.595C158.719 721.362 231.837 630.491 311.906 671.186L311.909 671.189C398.819 717.25 466.487 737.247 518.627 738.945C567.434 740.533 602.633 726.084 627.271 701.967C651.918 677.847 666.013 644.048 672.608 606.952C682.576 550.898 675.422 487.32 661.673 438.198C637.562 374.657 629.529 325.54 633.904 288.375C638.555 248.845 657.235 222.829 685.525 207.37C713.795 191.919 751.653 187.016 794.691 189.692C886.307 195.386 1001.42 235.423 1097.44 281.171L1097.46 281.179C1322.3 409.345 1406.18 408.093 1435.92 355.978C1437.42 353.369 1438.77 350.63 1440 347.775ZM1440 120.607V125.343C1438.05 149.532 1438.69 175.887 1439.32 202.058C1440.56 253.253 1441.78 303.725 1423.61 335.927C1393.71 388.928 1311.4 392.372 1090.53 267.93C988.264 220.242 873.574 181.714 782.831 176.42C738.822 173.853 700.449 179.104 671.871 194.923C649.046 207.557 632.465 226.936 624.243 254.465C622.178 261.38 620.64 268.809 619.662 276.774C615.201 313.162 622.442 360.743 644.583 421.631L644.586 421.639V421.651C657.235 471.709 664.118 535.681 654.3 591.801C647.765 629.153 633.832 663.032 609.274 687.025C584.714 711.021 549.535 725.128 500.523 722.922C450.541 720.672 386.161 701.46 303.972 658.475C223.94 618.553 151.082 709.027 80.3058 796.909C68.8002 811.198 57.3493 825.417 45.9301 838.997H45.3858C56.877 825.339 68.4027 811.028 79.9832 796.647C150.863 708.633 223.833 618.027 304.165 658.101H304.171C386.305 701.058 450.621 720.254 500.546 722.501C549.431 724.703 584.506 710.644 608.989 686.723C633.475 662.799 647.374 629 653.894 591.726C663.7 535.675 656.826 471.772 644.191 421.763C622.03 360.812 614.784 313.171 619.251 276.719C624.132 236.896 642.996 210.425 671.669 194.555C700.322 178.695 738.773 173.427 782.857 176C873.661 181.294 988.411 219.843 1090.72 267.553L1090.73 267.561C1311.32 391.843 1393.47 388.508 1423.25 335.72C1441.36 303.616 1440.14 253.201 1438.9 202.067C1438.23 174.184 1437.55 146.082 1440 120.607ZM1440 65.8222V67.0996C1428.62 100.222 1428.65 143.263 1428.68 185.799C1428.72 235.103 1428.75 283.725 1411.04 315.527C1381.09 369.283 1300.52 374.899 1083.81 254.323C975.633 204.815 861.343 167.679 771.392 162.687C726.193 160.178 687.149 165.785 658.125 182.019C629.123 198.24 610.124 225.088 604.992 265.064C600.413 300.733 606.867 346.855 627.096 405.207L627.102 405.216L627.104 405.228C638.624 456.189 645.237 520.483 635.592 576.601C629.143 614.117 615.429 647.982 591.058 671.77C566.682 695.565 531.656 709.275 482.595 706.472C434.83 703.745 373.748 685.362 296.23 645.386C215.936 606.083 143.222 696.296 72.5615 783.962C57.3234 802.868 42.1833 821.653 27.0777 838.997H26.5247C41.7023 821.579 56.9231 802.698 72.236 783.7C143 695.904 215.821 605.56 296.418 645.012L296.421 645.015C373.884 684.959 434.905 703.331 482.618 706.055C531.549 708.849 566.469 695.185 590.765 671.471C615.063 647.751 628.743 613.964 635.177 576.531C644.811 520.48 638.207 456.249 626.695 405.334C606.446 346.924 599.989 300.741 604.577 265.012C609.729 224.892 628.804 197.944 657.92 181.656C687.017 165.38 726.142 159.758 771.415 162.269C861.418 167.267 975.765 204.418 1083.98 253.946L1084 253.955C1300.43 374.378 1380.84 368.868 1410.67 315.323C1428.33 283.616 1428.3 235.046 1428.26 185.799C1428.24 142.736 1428.21 99.1605 1440 65.8222ZM1440 35.1567V35.9998C1420.43 69.9653 1419.23 120.092 1418.05 169.529C1416.93 216.885 1415.82 263.602 1398.59 294.95C1368.58 349.553 1289.76 357.457 1077.08 240.708C963.416 189.548 849.573 153.707 760.417 148.902C713.861 146.393 674.042 152.352 644.514 169.014C615 185.664 595.756 213.015 590.318 253.305C585.601 288.246 591.263 332.917 609.611 388.776L609.614 388.787L609.617 388.802C619.994 440.686 626.344 505.312 616.889 561.426C610.542 599.092 597.069 632.928 572.914 656.504C548.751 680.088 513.912 693.401 464.834 690.023C419.278 686.887 361.448 669.362 288.495 632.303C207.933 593.614 135.365 683.564 64.8171 771.014C45.6853 794.731 26.7004 818.261 7.7443 839H7.17407C26.2108 818.201 45.2764 794.57 64.4888 770.752C135.141 683.176 207.812 593.093 288.67 631.927H288.676C361.578 668.962 419.353 686.473 464.857 689.606C513.802 692.975 548.538 679.706 572.618 656.202C596.703 632.695 610.138 598.939 616.471 561.354C625.918 505.303 619.573 440.738 609.205 388.894C590.839 332.978 585.174 288.249 589.898 253.247C595.355 212.814 614.674 185.362 644.301 168.648C673.907 151.946 713.801 145.973 760.434 148.485C849.644 153.29 963.542 189.148 1077.25 240.331L1077.26 240.34C1289.66 356.933 1368.32 349.145 1398.22 294.751C1415.4 263.496 1416.51 216.824 1417.63 169.523C1418.82 119.721 1420.02 69.2201 1440 35.1567ZM1440 10.8442V11.5002C1412.81 44.5681 1410.1 99.3302 1407.44 153.258C1405.2 198.597 1402.99 243.344 1386.29 274.176C1356.19 329.738 1279.13 340.053 1070.34 227.096C951.68 174.472 838.338 139.81 749.971 135.08C701.852 132.502 661.146 138.8 631.03 155.902C600.934 172.996 581.408 200.893 575.627 241.522C570.76 275.724 575.63 318.951 592.124 372.352L592.13 372.37V372.381C601.346 425.21 607.445 490.175 598.192 546.283C591.957 584.09 578.755 617.877 554.84 641.234C530.918 664.597 496.295 677.519 447.226 673.583C403.873 670.102 349.24 653.46 280.742 619.218C199.918 581.152 127.5 670.838 57.0671 758.07C37.9439 781.755 18.9648 805.256 0 825.981V825.362C18.8553 804.729 37.725 781.358 56.7416 757.808C127.278 670.45 199.8 580.631 280.923 618.844H280.929C349.375 653.06 403.957 669.693 447.257 673.166C496.188 677.093 530.708 664.215 554.546 640.935C578.389 617.647 591.557 583.937 597.777 546.214C607.019 490.166 600.925 425.256 591.715 372.462C575.207 319.006 570.334 275.724 575.21 241.465C581.01 200.695 600.608 172.699 630.82 155.542C661.011 138.394 701.794 132.082 749.988 134.662C838.41 139.398 951.809 174.078 1070.52 226.722L1070.53 226.731C1279.03 339.529 1355.93 329.327 1385.91 273.98C1402.57 243.232 1404.78 198.534 1407.01 153.244C1409.7 99.0253 1412.42 43.9697 1440 10.8442ZM1430.36 0H1430.9C1404.77 32.8118 1400.77 85.2837 1396.83 136.976C1393.54 180.218 1390.29 222.91 1374.16 253.149C1343.96 309.799 1268.67 322.686 1063.62 213.487C940.503 159.608 827.725 126.008 740.138 121.211C690.214 118.478 648.48 125.104 617.693 142.67C586.926 160.224 567.085 188.714 560.925 229.717C555.897 263.171 559.972 304.956 574.637 355.926L574.64 355.941L574.642 355.952C586.378 434.483 593.469 537.525 556.38 600.697C519.269 663.907 437.984 687.201 273.006 606.132C191.914 568.68 119.646 658.103 49.3228 745.119C32.806 765.556 16.3958 785.858 0.00287999 804.361V803.731C16.2864 785.331 32.59 765.159 49.0002 744.857C119.425 657.715 191.796 568.164 273.182 605.753L273.188 605.755C437.903 686.697 519.021 663.51 556.02 600.484C593.043 537.424 585.958 434.486 574.231 356.027C559.551 305.005 555.476 263.165 560.51 229.657C566.691 188.515 586.603 159.927 617.485 142.307C648.344 124.702 690.156 118.058 740.161 120.794C827.8 125.594 940.632 159.205 1063.8 213.107L1063.81 213.116C1268.57 322.165 1343.7 309.39 1373.79 252.954C1389.88 222.792 1393.13 180.143 1396.41 136.947C1400.35 85.3239 1404.34 32.924 1430.36 0ZM1413.61 0H1414.1C1395.47 32.1587 1390.82 76.7096 1386.24 120.688C1381.96 161.729 1377.74 202.269 1362.25 231.82C1331.9 289.713 1258.4 305.371 1056.89 199.872C929.942 144.98 817.82 112.315 731.017 107.315C678.99 104.316 636.07 111.256 604.514 129.305C572.975 147.342 552.786 176.486 546.202 217.903C541.007 250.594 544.284 290.933 557.146 339.495L557.149 339.503L557.152 339.523C567.065 418.854 574.435 520.949 539.161 583.863C503.864 646.819 425.928 670.55 265.262 593.041C183.905 556.204 111.784 645.366 41.5727 732.166C27.6623 749.372 13.824 766.48 0.00287999 782.497V781.859C13.7174 765.95 27.4463 748.975 41.253 731.907C111.562 644.983 183.787 555.695 265.438 592.664L265.443 592.667C425.842 670.053 503.61 646.428 538.801 583.664C574.012 520.86 566.65 418.866 556.743 339.601C543.867 290.988 540.589 250.591 545.793 217.846C552.397 176.293 572.658 147.055 604.306 128.951C635.937 110.859 678.939 103.902 731.043 106.903C817.895 111.907 930.071 144.583 1057.06 199.495L1057.08 199.501C1258.3 304.85 1331.64 289.31 1361.88 231.628C1377.33 202.151 1381.55 161.648 1385.82 120.645C1390.4 76.7182 1395.04 32.2162 1413.61 0ZM1398.74 0H1399.2C1385.62 29.8886 1380.61 67.3471 1375.66 104.388C1370.49 143.11 1365.38 181.377 1350.59 210.115C1320.06 269.449 1248.39 288.125 1050.16 186.26C920.095 130.632 808.746 98.7721 722.737 93.4118C668.257 90.0167 623.951 97.25 591.511 115.808C559.09 134.355 538.513 164.223 531.466 206.101C526.097 238.015 528.58 276.904 539.662 323.074L539.665 323.089L539.668 323.1C547.755 403.231 555.404 504.374 521.947 567.034C488.464 629.743 413.875 653.906 257.52 579.953C175.899 543.74 103.927 632.637 33.8313 719.219C22.5158 733.196 11.2521 747.11 0.00287999 760.426V759.779C11.1456 746.578 22.3027 732.796 33.5059 718.957C103.703 632.252 175.775 543.228 257.69 579.573L257.696 579.576C413.777 653.402 488.202 629.346 521.576 566.838C554.975 504.285 547.334 403.225 539.25 323.155C528.159 276.935 525.674 237.998 531.054 206.032C538.121 164.022 558.771 134.055 591.303 115.446C623.818 96.8443 668.202 89.5909 722.763 92.9946C808.82 98.3606 920.222 130.229 1050.33 185.88L1050.35 185.886C1248.28 287.601 1319.8 269.046 1350.22 209.925C1364.98 181.248 1370.09 143.018 1375.25 104.334C1380.19 67.3327 1385.2 29.9145 1398.74 0ZM1384.84 0H1385.29C1375.23 26.5539 1370.14 57.4609 1365.1 88.0803C1359.14 124.325 1353.25 160.16 1339.25 187.931C1308.49 248.946 1238.69 270.965 1043.43 172.65C911.054 116.591 800.627 85.4103 715.437 79.5206C658.07 75.5529 612.157 83.0567 578.697 102.153C545.261 121.24 524.26 151.917 516.7 194.313C511.153 225.427 512.843 262.857 522.172 306.651L522.175 306.66V306.677L522.261 307.805C528.361 386.58 535.849 483.281 506.945 545.63C476.443 611.426 405.48 638.964 249.773 566.873C167.884 531.279 96.0622 619.914 26.0784 706.277C17.3606 717.035 8.67454 727.755 0 738.197V737.546C8.56798 727.229 17.1475 716.638 25.7558 706.015C95.8376 619.529 167.763 530.766 249.943 566.49L249.949 566.493C405.368 638.452 476.167 611.038 506.568 545.458C535.425 483.206 527.943 386.566 521.849 307.839L521.763 306.732C512.426 262.892 510.735 225.413 516.291 194.244C523.871 151.719 544.941 120.944 578.49 101.796C612.022 82.6568 658.015 75.1357 715.463 79.1092C800.702 85.0017 911.178 116.197 1043.6 172.274L1043.61 172.279C1238.57 270.444 1308.22 248.551 1338.87 187.747C1352.85 160.034 1358.74 124.227 1364.69 88.017C1369.73 57.4264 1374.81 26.5567 1384.84 0ZM1371.35 0H1371.79C1364.28 22.4653 1359.4 47.2065 1354.57 71.7579C1347.96 105.321 1341.42 138.529 1328.31 165.118C1297.25 228.126 1229.39 253.912 1036.7 159.035C902.944 102.904 793.646 72.2729 709.317 65.6754C648.54 60.9222 600.741 68.6533 566.112 88.3191C531.5 107.976 510.038 139.568 501.917 182.542C496.191 212.839 497.093 248.796 504.69 290.219L504.693 290.234V290.248C505.013 296.098 505.35 302.039 505.69 308.05C510.041 384.704 515.038 472.701 488.865 530.476C459.731 594.787 392.042 621.649 242.032 553.778C159.88 518.806 88.2056 607.177 18.3369 693.324C12.2141 700.873 6.10271 708.406 0.00287999 715.838V715.179C5.99615 707.876 11.9981 700.476 18.0115 693.062C87.9781 606.794 159.753 518.297 242.199 553.399H242.202C391.918 621.137 459.445 594.396 488.479 530.303C514.609 472.621 509.615 384.681 505.266 308.075C504.926 302.071 504.587 296.132 504.27 290.286C496.667 248.816 495.762 212.814 501.499 182.467C509.644 139.367 531.175 107.68 565.899 87.9595C600.603 68.2477 648.483 60.4993 709.343 65.2582C793.718 71.8586 903.062 102.501 1036.87 158.653L1036.88 158.659C1229.27 253.385 1296.97 227.726 1327.93 164.931C1341.01 138.391 1347.55 105.208 1354.15 71.6744C1358.99 47.1605 1363.86 22.4538 1371.35 0ZM1357.87 0H1358.3C1352.74 17.833 1348.38 36.6845 1344.05 55.421C1336.98 86.0317 1329.98 116.34 1317.89 141.458C1286.44 206.866 1220.65 237.011 1029.98 145.423C843.755 67.9283 708.058 39.8178 618.361 53.3379C587.294 58.022 561.749 67.6981 541.537 82.0468C521.334 96.3926 506.456 115.408 496.718 138.774C481.967 174.17 479.012 219.555 487.2 273.802V273.811V273.825C487.54 284.514 487.98 295.531 488.427 306.7C491.388 380.754 494.616 461.506 470.824 515.356C443.073 578.174 378.624 604.38 234.288 540.696C151.868 506.339 80.3432 594.448 10.5869 680.379C7.05311 684.729 3.52511 689.077 0 693.401V692.739C3.41567 688.544 6.83711 684.332 10.2643 680.114C80.1186 594.062 151.744 505.83 234.455 540.31H234.457C378.5 603.865 442.79 577.78 470.444 515.183C494.196 461.42 490.97 380.719 488.009 306.712C487.566 295.588 487.125 284.617 486.785 273.851C478.589 219.532 481.555 174.078 496.332 138.61C506.099 115.172 521.023 96.0934 541.292 81.7044C561.559 67.3183 587.162 57.6163 618.294 52.9236C708.067 39.3949 843.841 67.5111 1030.14 145.041L1030.15 145.046C1220.51 236.487 1286.16 206.472 1317.51 141.277C1329.57 116.202 1336.57 85.9138 1343.64 55.326C1347.97 36.6241 1352.32 17.81 1357.87 0ZM1344.08 0H1344.52C1340.58 12.8151 1337.07 25.9698 1333.57 39.0669C1326.28 66.34 1319.06 93.3715 1308.19 116.602C1276.2 184.971 1212.68 220.337 1023.25 131.814C838.3 55.4325 705.567 27.5609 616.25 37.8239C581.102 41.8635 552.682 51.8072 530.455 67.0248C508.233 82.2367 492.197 102.725 481.806 127.849C467.409 162.672 463.855 206.409 469.718 257.376L469.721 257.385V257.396C469.865 272.594 470.277 288.289 470.692 304.148C472.558 375.348 474.511 449.871 452.85 500.256C426.495 561.567 365.252 587.148 226.555 527.604C143.861 493.872 72.4866 581.719 2.83967 667.434L0.00287999 670.927V670.266L2.51712 667.17C72.2591 581.336 143.735 493.368 226.71 527.225H226.713C365.117 586.645 426.202 561.184 452.459 500.098C474.082 449.79 472.132 375.319 470.268 304.162C469.854 288.326 469.442 272.654 469.298 257.416C463.426 206.383 466.991 162.583 481.414 127.694C491.834 102.492 507.922 81.9432 530.213 66.6824C552.495 51.4274 580.978 41.4579 616.195 37.4125C705.578 27.1408 838.387 55.0211 1023.41 131.428L1023.41 131.434C1212.54 219.817 1275.92 184.582 1307.81 116.427C1318.66 93.2334 1325.88 66.2163 1333.16 38.9604C1336.65 25.9007 1340.15 12.7835 1344.08 0ZM1329.7 0H1330.14C1327.74 7.53256 1325.42 15.1227 1323.11 22.6955C1315.98 46.0528 1308.91 69.2288 1299.53 89.9217C1266.78 162.077 1205.9 204.032 1016.51 118.199C791.561 25.9612 646.573 4.98334 559.779 32.9154C473.051 60.8244 444.447 137.62 452.228 240.958V240.97V240.979C451.989 260.429 452.292 280.52 452.591 300.684C453.611 368.897 454.642 437.927 434.919 485.203C409.976 544.997 351.901 569.98 218.81 514.53C137.805 482.182 67.9823 564.933 0.00287999 648.453V647.792C67.9765 564.292 137.808 481.736 218.966 514.139H218.969C351.768 569.471 409.688 544.606 434.536 485.039C454.224 437.844 453.196 368.857 452.176 300.69C451.874 280.515 451.574 260.411 451.814 240.982C444.02 137.448 472.702 60.5022 559.652 32.5212C646.539 4.56039 791.627 25.5382 1016.68 117.822L1016.69 117.825C1205.75 203.509 1266.5 161.697 1299.15 89.7549C1308.53 69.0792 1315.6 45.9204 1322.72 22.5775C1325.01 15.0421 1327.31 7.49228 1329.7 0ZM1314.43 0H1314.87C1314.14 2.10037 1313.42 4.20074 1312.69 6.29823C1306.33 24.7297 1300.01 43.0461 1292.54 60.0878C1258.65 137.387 1201.21 188.4 1009.79 104.59C775.608 9.19846 630.31 -9.66746 544.322 19.7579C458.397 49.1602 431.714 126.828 434.738 224.538V224.55C433.949 248.042 434.09 272.329 434.231 296.469C434.614 361.623 434.989 425.731 417.055 470.161C393.537 528.43 338.589 552.846 211.063 501.436C132.894 470.909 65.4363 546.102 0.00287999 626.023V625.361C65.4306 545.475 132.903 470.463 211.219 501.051H211.222C338.451 552.343 393.243 528.045 416.672 470.005C434.574 425.653 434.197 361.589 433.816 296.474C433.675 272.323 433.531 248.025 434.32 224.544C431.294 126.658 458.046 48.8408 544.186 19.3666C630.267 -10.0933 775.663 8.76976 1009.95 104.207H1009.96C1201.04 187.871 1258.36 137.01 1292.16 59.9181C1299.62 42.8878 1305.94 24.5801 1312.3 6.16013C1313.01 4.10867 1313.72 2.05433 1314.43 0ZM764.765 0H766.49C831.158 15.9599 907.135 41.0119 996.49 76.98C1189.73 154.766 1240.9 85.4448 1279.84 0H1280.3C1241.27 85.7124 1190.08 155.355 996.334 77.3656C906.242 41.1011 829.761 15.9398 764.765 0ZM705.106 0H707.687C785.038 12.7288 882.01 41.5211 1003.22 90.5921H1003.22C1218.67 181.299 1260.73 95.2158 1297.94 0H1298.38C1261.08 95.4805 1219.02 181.901 1003.06 90.9777C880.552 41.3802 782.829 12.5102 705.106 0ZM549.221 0H550.989C543.202 1.87019 535.829 4.07126 528.868 6.59746C443.75 37.4959 418.984 116.038 417.254 208.115V208.124C415.759 235.529 415.724 263.841 415.69 291.661C415.612 353.725 415.537 413.35 399.271 455.15C377.187 511.889 325.333 535.776 203.328 488.353C128.004 459.59 62.9077 527.627 0.00287999 603.675V603.019C62.9048 527.012 128.019 459.144 203.474 487.959C325.183 535.266 376.885 511.503 398.879 454.995C415.12 413.267 415.192 353.682 415.272 291.655C415.307 263.835 415.341 235.523 416.836 208.106C418.573 115.863 443.398 37.1766 528.729 6.20616C535.201 3.85835 542.032 1.78675 549.221 0ZM497.551 0H498.501C459.86 19.1134 436.025 49.4594 421.303 85.9886C397.932 143.97 397.454 217.521 397.004 286.35C396.621 345.312 396.258 400.814 381.553 440.16C360.921 495.371 312.114 518.757 195.583 475.265C123.14 448.225 60.4021 509.507 0.00287999 581.457V580.807C60.3992 508.908 123.157 447.785 195.727 474.874C311.958 518.256 360.616 494.988 381.161 440.016C395.841 400.739 396.201 345.272 396.584 286.35C397.033 217.48 397.511 143.89 420.911 85.8332C435.579 49.445 459.267 19.1853 497.551 0ZM173.546 838.997C232.943 768.652 294.16 713.375 358.381 749.717C476.279 816.437 565.081 840.398 630.497 837.228C678.149 834.914 713.386 818.198 738.41 793.12C763.438 768.039 778.255 734.591 785.072 698.825C795.757 642.751 786.774 580.983 766.617 536.803C729.465 455.369 717.052 396.61 721.945 355.291C726.326 318.31 744.559 295.286 771.32 282.474C798.055 269.673 833.3 267.078 871.743 270.933C968.361 280.63 1085.22 331.113 1137.85 362.855C1288.03 453.427 1382.17 493.509 1440 500.671V501.056C1382.05 493.889 1287.82 453.789 1137.63 363.212C1085.04 331.49 968.251 281.038 871.699 271.351C833.329 267.501 798.159 270.087 771.502 282.851C744.867 295.6 726.723 318.52 722.36 355.337C717.476 396.587 729.877 455.268 766.994 536.627C787.183 580.876 796.18 642.742 785.478 698.9C778.647 734.744 763.792 768.269 738.704 793.413C713.611 818.56 678.285 835.323 630.517 837.642C565.032 840.819 476.15 816.843 358.176 750.08C294.312 713.939 233.308 768.917 174.096 838.997H173.546Z" fill="white"/>
</g>
</mask>
<g mask="url(#mask0_45_104)">
<rect width="1440" height="580" fill="url(#paint0_linear_45_104)"/>
</g>
<defs>
<linearGradient id="paint0_linear_45_104" x1="720" y1="0" x2="720" y2="580" gradientUnits="userSpaceOnUse">
<stop stop-color="#5F5F6F"/>
<stop offset="1" stop-color="#222226"/>
</linearGradient>
</defs>
</svg>
