<svg width="28" height="28" viewBox="0 0 28 28" fill="none" xmlns="http://www.w3.org/2000/svg">
<path d="M21.4196 22.4C19.4752 22.4 17.5541 21.9763 15.6563 21.1288C13.7585 20.2813 12.0318 19.0795 10.4763 17.5233C8.92072 15.9678 7.71921 14.2411 6.87174 12.3433C6.02428 10.4456 5.60023 8.52445 5.59961 6.58001C5.59961 6.30001 5.69294 6.06667 5.87961 5.88001C6.06628 5.69334 6.29961 5.60001 6.57961 5.60001H10.3596C10.5774 5.60001 10.7718 5.67405 10.9429 5.82214C11.1141 5.97023 11.2152 6.14507 11.2463 6.34667L11.8529 9.61334C11.8841 9.86223 11.8763 10.0722 11.8296 10.2433C11.7829 10.4145 11.6974 10.5622 11.5729 10.6867L9.30961 12.9733C9.62072 13.5489 9.99001 14.1048 10.4175 14.6412C10.8449 15.1776 11.3157 15.6949 11.8296 16.1933C12.3118 16.6756 12.8174 17.1229 13.3463 17.5355C13.8752 17.948 14.4352 18.3251 15.0263 18.6667L17.2196 16.4733C17.3596 16.3333 17.5425 16.2285 17.7684 16.1588C17.9943 16.0891 18.2158 16.0695 18.4329 16.1L21.6529 16.7533C21.8707 16.8156 22.0496 16.9285 22.1896 17.0921C22.3296 17.2558 22.3996 17.4384 22.3996 17.64V21.42C22.3996 21.7 22.3063 21.9333 22.1196 22.12C21.9329 22.3067 21.6996 22.4 21.4196 22.4Z" fill="white"/>
</svg>
