<svg width="100" height="100" viewBox="0 0 100 100" fill="none" xmlns="http://www.w3.org/2000/svg">
<path d="M65 26H35L32 44H68L65 26ZM20 50C20 50 26 53 50 53C74 53 80 50 80 50L68 44H32L20 50ZM44 62H56V65H44V62Z" fill="url(#paint0_linear_34_134)"/>
<path d="M38 74C42.9706 74 47 69.9706 47 65C47 60.0294 42.9706 56 38 56C33.0294 56 29 60.0294 29 65C29 69.9706 33.0294 74 38 74Z" fill="url(#paint1_linear_34_134)"/>
<path d="M62 74C66.9706 74 71 69.9706 71 65C71 60.0294 66.9706 56 62 56C57.0294 56 53 60.0294 53 65C53 69.9706 57.0294 74 62 74Z" fill="url(#paint2_linear_34_134)"/>
<defs>
<linearGradient id="paint0_linear_34_134" x1="20" y1="45.5" x2="80" y2="45.5" gradientUnits="userSpaceOnUse">
<stop stop-color="#807EEE"/>
<stop offset="1" stop-color="#4045C9"/>
</linearGradient>
<linearGradient id="paint1_linear_34_134" x1="29" y1="65" x2="47" y2="65" gradientUnits="userSpaceOnUse">
<stop stop-color="#807EEE"/>
<stop offset="1" stop-color="#4045C9"/>
</linearGradient>
<linearGradient id="paint2_linear_34_134" x1="53" y1="65" x2="71" y2="65" gradientUnits="userSpaceOnUse">
<stop stop-color="#807EEE"/>
<stop offset="1" stop-color="#4045C9"/>
</linearGradient>
</defs>
</svg>
