<svg width="15" height="24" viewBox="0 0 15 24" fill="none" xmlns="http://www.w3.org/2000/svg">
<path d="M5.07225 17.744C5.07225 17.008 5.14158 16.2987 5.28025 15.616C5.42958 14.9227 5.66958 14.2827 6.00025 13.696C6.28825 13.1307 6.60825 12.6827 6.96025 12.352C7.31225 12.0107 7.70692 11.6747 8.14425 11.344C8.58158 11.0027 9.06692 10.5493 9.60025 9.984C10.0376 9.504 10.3256 9.02933 10.4643 8.56C10.6029 8.08 10.6723 7.568 10.6723 7.024C10.6723 6.672 10.6349 6.34133 10.5603 6.032C10.4856 5.72267 10.3523 5.456 10.1603 5.232C9.86158 4.83733 9.47758 4.56 9.00825 4.4C8.53892 4.22933 8.03758 4.144 7.50425 4.144C7.06692 4.144 6.64558 4.20267 6.24025 4.32C5.84558 4.42667 5.50958 4.59733 5.23225 4.832C4.91225 5.088 4.67758 5.40267 4.52825 5.776C4.37892 6.14933 4.30958 6.56 4.32025 7.008H0.25625C0.362917 5.94133 0.650917 4.95467 1.12025 4.048C1.60025 3.13067 2.22958 2.4 3.00825 1.856C3.61625 1.408 4.29892 1.072 5.05625 0.848C5.82425 0.623999 6.59225 0.511999 7.36025 0.511999C8.53358 0.511999 9.63758 0.693333 10.6723 1.056C11.7176 1.41867 12.5869 2.016 13.2803 2.848C13.7603 3.392 14.1229 4.02133 14.3683 4.736C14.6243 5.45067 14.7523 6.176 14.7523 6.912C14.7523 8.01067 14.5123 9.01333 14.0323 9.92C13.5629 10.8267 12.9656 11.664 12.2403 12.432C11.8989 12.7947 11.5736 13.1147 11.2643 13.392C10.9549 13.6693 10.6669 13.9413 10.4003 14.208C10.1443 14.464 9.93092 14.736 9.76025 15.024C9.46158 15.5253 9.28558 15.952 9.23225 16.304C9.17892 16.6453 9.15225 17.1253 9.15225 17.744H5.07225ZM5.10425 24V19.76H9.15225V24H5.10425Z" fill="url(#paint0_linear_45_101)"/>
<defs>
<linearGradient id="paint0_linear_45_101" x1="-1.5" y1="12" x2="16.5" y2="12" gradientUnits="userSpaceOnUse">
<stop stop-color="#807EEE"/>
<stop offset="1" stop-color="#4045C9"/>
</linearGradient>
</defs>
</svg>
