<svg width="1440" height="464" viewBox="0 0 1440 464" fill="none" xmlns="http://www.w3.org/2000/svg">
<mask id="mask0_46_186" style="mask-type:alpha" maskUnits="userSpaceOnUse" x="0" y="0" width="1440" height="464">
<g style="mix-blend-mode:soft-light">
<path d="M1440 196.886V196.673C1384.32 197.549 1289.32 218.243 1130.9 270.658C1070.55 289.606 954.01 316.466 858.307 321.37C819.26 323.372 783.687 321.717 756.828 314.376C729.995 307.043 711.857 294.028 707.641 273.304C703.076 250.863 714.82 219.389 749.504 176.31L749.507 176.308C768.653 151.406 777.328 117.035 766.721 85.9797C759.904 66.0164 745.118 47.4214 720.022 33.5873C694.925 19.7533 659.524 10.6818 611.477 9.77008C548.19 8.57028 462.956 21.5291 350.426 56.4133C282.47 77.3139 218.041 41.9078 155.574 0H155.033C217.681 42.0463 282.314 77.6258 350.631 56.6138C463.086 21.7519 548.247 8.80099 611.463 10.0008C659.389 10.9109 694.701 19.9554 719.725 33.7513C744.755 47.5487 759.503 66.1006 766.309 86.0211C776.899 117.031 768.236 151.35 749.118 176.216C714.403 219.335 702.647 250.849 707.22 273.326C711.454 294.141 729.678 307.213 756.638 314.58C783.572 321.941 819.223 323.602 858.342 321.597C954.11 316.69 1070.72 289.814 1131.11 270.855L1131.11 270.853C1289.55 218.436 1384.45 197.755 1440 196.886ZM1440 207.557V207.337C1387.29 204.457 1292 223.128 1124.18 278.183C1056.24 298.498 939.964 324.344 845.106 328.823C805.376 330.699 769.411 328.828 742.344 321.23C715.298 313.64 697.131 300.328 692.958 279.319C688.578 257.255 699.623 226.708 732.02 185.392L732.023 185.389C750.115 160.046 758.475 125.515 747.972 94.4657C741.175 74.3687 726.479 55.7291 701.405 41.9747C676.329 28.2186 640.885 19.3524 592.593 18.8082C531.517 18.1208 449.881 30.7502 342.688 63.6486C270.665 85.4148 202.922 44.7625 137.272 0H136.734C202.562 44.8946 270.498 85.7299 342.889 63.8523V63.8507C450.016 30.973 531.578 18.3515 592.585 19.0389C640.756 19.5815 676.107 28.4223 701.112 42.1386C726.119 55.8564 740.778 74.4546 747.56 94.5086C758.046 125.515 749.7 159.997 731.631 185.305C699.205 226.659 688.152 257.245 692.541 279.346C696.731 300.442 714.982 313.812 742.151 321.437C769.295 329.055 805.339 330.933 845.137 329.054C940.062 324.571 1056.41 298.711 1124.38 278.386L1124.38 278.383C1292.27 223.31 1387.45 204.659 1440 207.557ZM1440 219.417V219.184C1391.16 211.667 1296.27 227.577 1117.45 285.712C1042.13 307.35 926.128 332.211 832.111 336.299C791.676 338.057 755.307 335.971 728.008 328.132C700.731 320.301 682.498 306.719 678.293 285.478C674.002 263.798 684.318 234.139 714.532 194.478L714.535 194.474C731.562 168.682 739.614 133.988 729.226 102.94C722.461 82.7177 707.871 64.04 682.85 50.3715C657.822 36.7014 622.364 28.042 573.865 27.8638C515.003 27.6458 436.921 39.9204 334.946 70.8871C258.851 93.4775 187.879 47.3068 119.085 0H118.549C187.516 47.4309 258.67 93.7942 335.145 71.0907V71.0891C437.051 40.1432 515.064 27.8765 573.862 28.0945C622.24 28.2727 657.603 36.9066 682.556 50.537C707.514 64.1705 722.064 82.8037 728.814 102.983C739.188 133.988 731.15 168.634 714.144 194.392C683.901 234.092 673.576 263.788 677.876 285.505C682.098 306.832 700.412 320.471 727.812 328.338C755.189 336.198 791.63 338.289 832.14 336.528C926.226 332.437 1042.29 307.563 1117.65 285.913L1117.65 285.91C1296.59 227.741 1391.35 211.866 1440 219.417ZM1440 233.033V232.773C1396.29 219.362 1302.95 231.342 1110.72 293.24C1028.24 316.152 912.541 340.063 819.35 343.796C778.149 345.446 741.357 343.152 713.795 335.081C686.257 327.019 667.931 313.183 663.634 291.745C659.363 270.448 668.928 241.651 697.042 203.564L697.045 203.558C712.997 177.308 720.744 142.447 710.483 111.404C703.758 91.062 689.301 72.3557 664.351 58.7795C639.399 45.2001 603.961 36.7523 555.283 36.9337C498.639 37.1437 424.059 49.0381 327.196 78.1271C247.959 101.23 174.654 50.7581 103.536 1.79327L100.932 0.0015564H100.397L103.21 1.93811C174.433 50.9746 247.849 101.523 327.392 78.3291H327.395C424.192 49.2608 498.706 37.3745 555.286 37.1644C603.84 36.9846 639.18 45.4053 664.058 58.9434C688.938 72.4846 703.361 91.148 710.068 111.446C720.318 142.449 712.583 177.263 696.65 203.481C668.51 241.605 658.937 270.438 663.214 291.77C667.531 313.294 685.937 327.186 713.593 335.285C741.23 343.378 778.1 345.679 819.373 344.026C912.627 340.291 1028.4 316.367 1110.91 293.442L1110.92 293.439C1303.35 231.479 1396.53 219.556 1440 233.033ZM1440 249.477V249.143C1403.3 227.891 1313.6 233.963 1104 300.765C1014.62 324.899 899.226 347.9 806.856 351.316C764.823 352.873 727.561 350.371 699.706 342.075C671.874 333.784 653.425 319.702 648.981 298.087C644.681 277.179 653.482 249.224 679.561 212.652L679.563 212.642C694.427 185.924 701.878 150.895 691.752 119.853C685.079 99.4 670.774 80.6746 645.928 67.1938C621.079 53.7115 585.693 45.4785 536.871 46.0132C482.448 46.6099 411.321 58.1 319.458 85.3639C239.955 108.126 166.798 57.7993 95.7944 8.95532C91.4398 5.95908 87.0939 2.96918 82.7538 0.0015564H82.2181C86.6273 3.01691 91.0453 6.0546 95.4718 9.10016C166.582 58.0173 239.846 108.419 319.653 85.5676L319.656 85.566C411.456 58.3212 482.52 46.839 536.88 46.2439C585.581 45.7108 620.863 53.9183 645.637 67.3593C670.414 80.8019 684.681 99.4843 691.34 119.895C701.454 150.897 694.012 185.883 679.166 212.57C653.067 249.178 644.26 277.169 648.563 298.114C653.024 319.812 671.554 333.953 699.507 342.278C727.438 350.597 764.774 353.105 806.885 351.549C899.316 348.129 1014.77 325.117 1104.18 300.975L1104.19 300.97C1314.17 234.045 1403.63 228.094 1440 249.477ZM1440 271.667V271.092C1438.87 269.679 1437.64 268.319 1436.29 267.015C1406.43 238.078 1322.38 237.327 1097.26 308.296C1001.28 333.584 886.223 355.715 794.671 358.862C751.707 360.339 713.925 357.635 685.729 349.114C659.051 341.05 640.955 327.77 635.177 307.885C634.854 306.774 634.57 305.642 634.325 304.489C629.958 283.97 637.985 256.841 662.07 221.736L662.073 221.733V221.726C675.837 194.531 683.002 159.328 673.02 128.29C666.411 107.73 652.278 88.9951 627.565 75.6177C602.846 62.2372 567.549 54.2206 518.615 55.1022C466.418 56.0426 398.689 67.1095 311.719 92.6008C231.952 115.023 158.941 64.842 88.0501 16.1174C80.1589 10.6929 72.2936 5.2876 64.4485 0.00317383H63.9071C71.8242 5.33533 79.7615 10.79 87.7246 16.2622C158.719 65.0584 231.837 115.314 311.906 92.8076L311.909 92.806C398.819 67.3323 466.487 56.2733 518.627 55.3345C567.434 54.4561 602.633 62.4472 627.271 75.7848C651.918 89.124 666.013 107.816 672.608 128.332C682.576 159.332 675.422 194.493 661.673 221.659C637.562 256.8 629.529 283.964 633.904 304.517C638.555 326.379 657.235 340.767 685.525 349.316C713.795 357.861 751.653 360.573 794.691 359.093C886.307 355.944 1001.42 333.802 1097.44 308.502L1097.46 308.497C1322.3 237.616 1406.18 238.308 1435.92 267.13C1437.42 268.573 1438.77 270.088 1440 271.667ZM1440 397.299V394.68C1438.05 381.303 1438.69 366.727 1439.32 352.254C1440.56 323.941 1441.78 296.028 1423.61 278.219C1393.71 248.907 1311.4 247.003 1090.53 315.824C988.264 342.197 873.574 363.505 782.831 366.433C738.822 367.852 700.449 364.948 671.871 356.2C649.046 349.213 632.465 338.495 624.243 323.271C622.178 319.447 620.64 315.338 619.662 310.933C615.201 290.809 622.442 264.495 644.583 230.822L644.586 230.817V230.811C657.235 203.127 664.118 167.748 654.3 136.711C647.765 116.054 633.832 97.3172 609.274 84.048C584.714 70.7773 549.535 62.9755 500.523 64.196C450.541 65.4403 386.161 76.0648 303.972 99.8376C223.94 121.916 151.082 71.8799 80.3058 23.2779C68.8002 15.3759 57.3493 7.51208 45.9301 0.0015564H45.3858C56.877 7.55505 68.4027 15.4698 79.9832 23.4227C150.863 72.098 223.833 122.207 304.165 100.044H304.171C386.305 76.2876 450.621 65.6711 500.546 64.4283C549.431 63.211 584.506 70.9857 608.989 84.2151C633.475 97.446 647.374 116.138 653.894 136.752C663.7 167.751 656.826 203.092 644.191 230.748C622.03 264.457 614.784 290.804 619.251 310.963C624.132 332.987 642.996 347.626 671.669 356.404C700.322 365.174 738.773 368.088 782.857 366.665C873.661 363.738 988.411 342.418 1090.72 316.033L1090.73 316.028C1311.32 247.296 1393.47 249.14 1423.25 278.334C1441.36 296.089 1440.14 323.97 1438.9 352.249C1438.23 367.669 1437.55 383.211 1440 397.299ZM1440 427.598V426.891C1428.62 408.573 1428.65 384.77 1428.68 361.246C1428.72 333.979 1428.75 307.089 1411.04 289.501C1381.09 259.772 1300.52 256.666 1083.81 323.349C975.633 350.729 861.343 371.267 771.392 374.028C726.193 375.415 687.149 372.314 658.125 363.337C629.123 354.365 610.124 339.518 604.992 317.409C600.413 297.683 606.867 272.176 627.096 239.904L627.102 239.9L627.104 239.893C638.624 211.71 645.237 176.152 635.592 145.117C629.143 124.369 615.429 105.641 591.058 92.4846C566.682 79.3253 531.656 71.7431 482.595 73.2929C434.83 74.8014 373.748 84.9677 296.23 107.076C215.936 128.812 143.222 78.9211 72.5615 30.4384C57.3234 19.9825 42.1833 9.59341 27.0777 0.0015564H26.5247C41.7023 9.63477 56.9231 20.0764 72.236 30.5831C143 79.1375 215.821 129.102 296.418 107.283L296.421 107.281C373.884 85.1905 434.905 75.0306 482.618 73.5237C531.549 71.9786 566.469 79.5353 590.765 92.6501C615.063 105.768 628.743 124.454 635.177 145.155C644.811 176.154 638.207 211.676 626.695 239.834C606.446 272.138 599.989 297.678 604.577 317.438C609.729 339.626 628.804 354.529 657.92 363.537C687.017 372.539 726.142 375.648 771.415 374.259C861.418 371.495 975.765 350.949 1083.98 323.558L1084 323.553C1300.43 256.954 1380.84 260.001 1410.67 289.614C1428.33 307.149 1428.3 334.01 1428.26 361.246C1428.24 385.061 1428.21 409.16 1440 427.598ZM1440 444.557V444.091C1420.43 425.306 1419.23 397.584 1418.05 370.244C1416.93 344.054 1415.82 318.218 1398.59 300.881C1368.58 270.683 1289.76 266.312 1077.08 330.879C963.416 359.172 849.573 378.994 760.417 381.651C713.861 383.039 674.042 379.744 644.514 370.529C615 361.32 595.756 346.194 590.318 323.913C585.601 304.589 591.263 279.884 609.611 248.992L609.614 248.985L609.617 248.977C619.994 220.283 626.344 184.543 616.889 153.509C610.542 132.679 597.069 113.966 572.914 100.928C548.751 87.8844 513.912 80.5219 464.834 82.39C419.278 84.1244 361.448 93.8165 288.495 114.311C207.933 135.708 135.365 85.9622 64.8171 37.5988C45.6853 24.4824 26.7004 11.4695 7.7443 0H7.17407C26.2108 11.5029 45.2764 24.5716 64.4888 37.7437C135.141 86.1771 207.812 135.996 288.67 114.52H288.676C361.578 94.0377 419.353 84.3535 464.857 82.6207C513.802 80.7574 548.538 88.096 572.618 101.095C596.703 114.095 610.138 132.763 616.471 153.549C625.918 184.548 619.573 220.254 609.205 248.927C590.839 279.85 585.174 304.587 589.898 323.944C595.355 346.306 614.674 361.488 644.301 370.731C673.907 379.968 713.801 383.271 760.434 381.882C849.644 379.225 963.542 359.394 1077.25 331.087L1077.26 331.083C1289.66 266.602 1368.32 270.909 1398.22 300.991C1415.4 318.276 1416.51 344.088 1417.63 370.247C1418.82 397.79 1420.02 425.719 1440 444.557ZM1440 458.003V457.64C1412.81 439.352 1410.1 409.066 1407.44 379.242C1405.2 354.168 1402.99 329.421 1386.29 312.37C1356.19 281.642 1279.13 275.937 1070.34 338.407C951.68 367.51 838.338 386.68 749.971 389.296C701.852 390.721 661.146 387.238 631.03 377.78C600.934 368.327 581.408 352.898 575.627 330.429C570.76 311.514 575.63 287.607 592.124 258.074L592.13 258.065V258.059C601.346 228.842 607.445 192.914 598.192 161.884C591.957 140.975 578.755 122.29 554.84 109.372C530.918 96.4515 496.295 89.3054 447.226 91.4821C403.873 93.4075 349.24 102.611 280.742 121.548C199.918 142.6 127.5 93.0002 57.0671 44.7577C37.9439 31.6588 18.9648 18.6617 0 7.20023V7.54236C18.8553 18.953 37.725 31.8784 56.7416 44.9025C127.278 93.215 199.8 142.888 280.923 121.755H280.929C349.375 102.832 403.957 93.6335 447.257 91.7129C496.188 89.5409 530.708 96.6631 554.546 109.538C578.389 122.417 591.557 141.06 597.777 161.922C607.019 192.919 600.925 228.817 591.715 258.014C575.207 287.577 570.334 311.514 575.21 330.46C581.01 353.008 600.608 368.49 630.82 377.979C661.011 387.463 701.794 390.954 749.988 389.526C838.41 386.907 951.809 367.728 1070.52 338.614L1070.53 338.609C1279.03 276.227 1355.93 281.869 1385.91 312.478C1402.57 329.483 1404.78 354.203 1407.01 379.25C1409.7 409.235 1412.42 439.683 1440 458.003ZM1430.36 464H1430.9C1404.77 445.854 1400.77 416.835 1396.83 388.247C1393.54 364.333 1390.29 340.722 1374.16 323.999C1343.96 292.669 1268.67 285.542 1063.62 345.933C940.503 375.731 827.725 394.313 740.138 396.965C690.214 398.477 648.48 394.812 617.693 385.098C586.926 375.39 567.085 359.634 560.925 336.957C555.897 318.456 559.972 295.347 574.637 267.159L574.64 267.151L574.642 267.144C586.378 223.714 593.469 166.728 556.38 131.791C519.269 96.8334 437.984 83.9509 273.006 128.785C191.914 149.498 119.646 100.043 49.3228 51.9198C32.806 40.6174 16.3958 29.3897 0.00287999 19.1566V19.5051C16.2864 29.6809 32.59 40.8369 49.0002 52.0645C119.425 100.258 191.796 149.783 273.182 128.995L273.188 128.993C437.903 84.2294 519.021 97.053 556.02 131.909C593.043 166.783 585.958 223.712 574.231 267.103C559.551 295.32 555.476 318.459 560.51 336.991C566.691 359.744 586.603 375.554 617.485 385.298C648.344 395.035 690.156 398.709 740.161 397.196C827.8 394.542 940.632 375.953 1063.8 346.143L1063.81 346.139C1268.57 285.83 1343.7 292.895 1373.79 324.107C1389.88 340.787 1393.13 364.374 1396.41 388.263C1400.35 416.813 1404.34 445.792 1430.36 464ZM1413.61 464H1414.1C1395.47 446.215 1390.82 421.577 1386.24 397.255C1381.96 374.558 1377.74 352.138 1362.25 335.794C1331.9 303.777 1258.4 295.118 1056.89 353.463C929.942 383.82 817.82 401.885 731.017 404.651C678.99 406.309 636.07 402.471 604.514 392.489C572.975 382.514 552.786 366.396 546.202 343.491C541.007 325.412 544.284 303.103 557.146 276.246L557.149 276.241L557.152 276.23C567.065 232.357 574.435 175.895 539.161 141.101C503.864 106.284 425.928 93.1593 265.262 136.025C183.905 156.397 111.784 107.087 41.5727 59.0834C27.6623 49.5679 13.824 40.1066 0.00287999 31.2483V31.6015C13.7174 40.3994 27.4463 49.7875 41.253 59.2266C111.562 107.299 183.787 156.679 265.438 136.234L265.443 136.232C425.842 93.4346 503.61 106.5 538.801 141.211C574.012 175.944 566.65 232.351 556.743 276.187C543.867 303.072 540.589 325.413 545.793 343.523C552.397 366.503 572.658 382.673 604.306 392.685C635.937 402.69 678.939 406.538 731.043 404.878C817.895 402.111 930.071 384.04 1057.06 353.671L1057.08 353.668C1258.3 295.406 1331.64 304 1361.88 335.901C1377.33 352.203 1381.55 374.602 1385.82 397.279C1390.4 421.572 1395.04 446.183 1413.61 464ZM1398.74 464H1399.2C1385.62 447.47 1380.61 426.754 1375.66 406.269C1370.49 384.855 1365.38 363.691 1350.59 347.798C1320.06 314.984 1248.39 304.656 1050.16 360.991C920.095 391.756 808.746 409.375 722.737 412.34C668.257 414.217 623.951 410.217 591.511 399.954C559.09 389.697 538.513 373.178 531.466 350.018C526.097 332.368 528.58 310.861 539.662 285.327L539.665 285.319L539.668 285.313C547.755 240.997 555.404 185.062 521.947 150.408C488.464 115.728 413.875 102.364 257.52 143.263C175.899 163.29 103.927 114.127 33.8313 66.2438C22.5158 58.5137 11.2521 50.8186 0.00287999 43.4545V43.8125C11.1456 51.113 22.3027 58.7349 33.5059 66.3887C103.703 114.34 175.775 163.574 257.69 143.474L257.696 143.472C413.777 102.643 488.202 115.947 521.576 150.516C554.975 185.111 547.334 241.001 539.25 285.283C528.159 310.844 525.674 332.378 531.054 350.056C538.121 373.29 558.771 389.862 591.303 400.154C623.818 410.441 668.202 414.453 722.763 412.57C808.82 409.603 920.222 391.978 1050.33 361.201L1050.35 361.198C1248.28 304.945 1319.8 315.207 1350.22 347.903C1364.98 363.763 1370.09 384.905 1375.25 406.299C1380.19 426.762 1385.2 447.456 1398.74 464ZM1384.84 464H1385.29C1375.23 449.315 1370.14 432.222 1365.1 415.288C1359.14 395.244 1353.25 375.425 1339.25 360.067C1308.49 326.323 1238.69 314.146 1043.43 368.518C911.054 399.521 800.627 416.765 715.437 420.022C658.07 422.216 612.157 418.066 578.697 407.505C545.261 396.949 524.26 379.984 516.7 356.537C511.153 339.33 512.843 318.63 522.172 294.41L522.175 294.405V294.396L522.261 293.772C528.361 250.206 535.849 196.727 506.945 162.245C476.443 125.857 405.48 110.628 249.773 150.497C167.884 170.182 96.0622 121.163 26.0784 73.4011C17.3606 67.4516 8.67454 61.5227 0 55.7482V56.1078C8.56798 61.8139 17.1475 67.6712 25.7558 73.546C95.8376 121.376 167.763 170.465 249.943 150.709L249.949 150.707C405.368 110.911 476.167 126.072 506.568 162.341C535.425 196.768 527.943 250.214 521.849 293.753L521.763 294.365C512.426 318.611 510.735 339.338 516.291 356.575C523.871 380.094 544.941 397.113 578.49 407.703C612.022 418.288 658.015 422.447 715.463 420.25C800.702 416.991 911.178 399.739 1043.6 368.726L1043.61 368.723C1238.57 314.434 1308.22 326.541 1338.87 360.168C1352.85 375.495 1358.74 395.298 1364.69 415.323C1369.73 432.241 1374.81 449.313 1384.84 464ZM1371.35 464H1371.79C1364.28 451.576 1359.4 437.893 1354.57 424.315C1347.96 405.754 1341.42 387.388 1328.31 372.683C1297.25 337.837 1229.39 323.577 1036.7 376.047C902.944 407.09 793.646 424.03 709.317 427.679C648.54 430.308 600.741 426.032 566.112 415.156C531.5 404.285 510.038 386.813 501.917 363.047C496.191 346.291 497.093 326.406 504.69 303.497L504.693 303.489V303.481C505.013 300.246 505.35 296.961 505.69 293.637C510.041 251.243 515.038 202.578 488.865 170.626C459.731 135.059 392.042 120.204 242.032 157.739C159.88 177.08 88.2056 128.207 18.3369 80.5648C12.2141 76.3895 6.10271 72.2236 0.00287999 68.1135V68.478C5.99615 72.5165 11.9981 76.6091 18.0115 80.7096C87.9781 128.419 159.753 177.362 242.199 157.949H242.202C391.918 120.487 459.445 135.276 488.479 170.721C514.609 202.622 509.615 251.256 505.266 293.622C504.926 296.943 504.587 300.227 504.27 303.461C496.667 326.395 495.762 346.306 501.499 363.088C509.644 386.925 531.175 404.449 565.899 415.355C600.603 426.256 648.483 430.542 709.343 427.91C793.718 424.259 903.062 407.313 1036.87 376.259L1036.88 376.256C1229.27 323.868 1296.97 338.058 1327.93 372.787C1341.01 387.464 1347.55 405.816 1354.15 424.361C1358.99 437.918 1363.86 451.582 1371.35 464ZM1357.87 464H1358.3C1352.74 454.138 1348.38 443.712 1344.05 433.35C1336.98 416.421 1329.98 399.659 1317.89 385.768C1286.44 349.595 1220.65 332.924 1029.98 383.575C843.755 426.433 708.058 441.979 618.361 434.502C587.294 431.912 561.749 426.56 541.537 418.625C521.334 410.691 506.456 400.175 496.718 387.252C481.967 367.677 479.012 342.578 487.2 312.577V312.572V312.564C487.54 306.653 487.98 300.56 488.427 294.383C491.388 253.428 494.616 208.769 470.824 178.988C443.073 144.247 378.624 129.754 234.288 164.974C151.868 183.975 80.3432 135.247 10.5869 87.7237C7.05311 85.3178 3.52511 82.9135 0 80.5219V80.8878C3.41567 83.2079 6.83711 85.5374 10.2643 87.8701C80.1186 135.46 151.744 184.256 234.455 165.187H234.457C378.5 130.039 442.79 144.465 470.444 179.083C494.196 208.817 490.97 253.447 488.009 294.376C487.566 300.528 487.125 306.595 486.785 312.55C478.589 342.59 481.555 367.728 496.332 387.343C506.099 400.305 521.023 410.857 541.292 418.814C561.559 426.77 587.162 432.136 618.294 434.731C708.067 442.213 843.841 426.664 1030.14 383.787L1030.15 383.784C1220.51 333.213 1286.16 349.813 1317.51 385.868C1329.57 399.736 1336.57 416.486 1343.64 433.403C1347.97 443.745 1352.32 454.15 1357.87 464ZM1344.08 464H1344.52C1340.58 456.913 1337.07 449.638 1333.57 442.394C1326.28 427.311 1319.06 412.362 1308.19 399.514C1276.2 361.704 1212.68 342.145 1023.25 391.102C838.3 433.344 705.567 448.758 616.25 443.082C581.102 440.848 552.682 435.349 530.455 426.933C508.233 418.52 492.197 407.189 481.806 393.294C467.409 374.036 463.855 349.848 469.718 321.661L469.721 321.656V321.65C469.865 313.245 470.277 304.565 470.692 295.794C472.558 256.418 474.511 215.204 452.85 187.339C426.495 153.431 365.252 139.284 226.555 172.214C143.861 190.869 72.4866 142.286 2.83967 94.8826L0.00287999 92.9508V93.3168L2.51712 95.029C72.2591 142.498 143.735 191.148 226.71 172.424H226.713C365.117 139.562 426.202 153.643 452.459 187.426C474.082 215.248 472.132 256.434 470.268 295.786C469.854 304.544 469.442 313.212 469.298 321.639C463.426 349.862 466.991 374.085 481.414 393.38C491.834 407.318 507.922 418.682 530.213 427.122C552.495 435.559 580.978 441.072 616.195 443.309C705.578 448.99 838.387 433.571 1023.41 391.315L1023.41 391.312C1212.54 342.433 1275.92 361.919 1307.81 399.611C1318.66 412.438 1325.88 427.38 1333.16 442.453C1336.65 449.676 1340.15 456.93 1344.08 464ZM1329.7 464H1330.14C1327.74 459.834 1325.42 455.637 1323.11 451.448C1315.98 438.531 1308.91 425.714 1299.53 414.27C1266.78 374.365 1205.9 351.162 1016.51 398.631C791.561 449.642 646.573 461.244 559.779 445.796C473.051 430.362 444.447 387.891 452.228 330.74V330.734V330.729C451.989 319.973 452.292 308.861 452.591 297.71C453.611 259.985 454.642 221.809 434.919 195.664C409.976 162.595 351.901 148.779 218.81 179.445C137.805 197.335 67.9823 151.57 0.00287999 105.38V105.746C67.9765 151.924 137.808 197.581 218.966 179.661H218.969C351.768 149.06 409.688 162.812 434.536 195.754C454.224 221.855 453.196 260.008 452.176 297.707C451.874 308.864 451.574 319.982 451.814 330.728C444.02 387.986 472.702 430.54 559.652 446.014C646.539 461.478 791.627 449.876 1016.68 398.84L1016.69 398.838C1205.75 351.452 1266.5 374.575 1299.15 414.362C1308.53 425.797 1315.6 438.604 1322.72 451.514C1325.01 455.681 1327.31 459.856 1329.7 464ZM1314.43 464H1314.87C1314.14 462.838 1313.42 461.677 1312.69 460.517C1306.33 450.324 1300.01 440.194 1292.54 430.769C1258.65 388.019 1201.21 359.807 1009.79 406.158C775.608 458.913 630.31 469.346 544.322 453.073C458.397 436.812 431.714 393.859 434.738 339.822V339.815C433.949 326.823 434.09 313.391 434.231 300.041C434.614 264.008 434.989 228.554 417.055 203.983C393.537 171.757 338.589 158.254 211.063 186.686C132.894 203.569 65.4363 161.984 0.00287999 117.785V118.151C65.4306 162.331 132.903 203.816 211.219 186.899H211.222C338.451 158.533 393.243 171.971 416.672 204.069C434.574 228.597 434.197 264.027 433.816 300.038C433.675 313.395 433.531 326.832 434.32 339.818C431.294 393.953 458.046 436.989 544.186 453.29C630.267 469.582 775.663 459.15 1009.95 406.369H1009.96C1201.04 360.1 1258.36 388.228 1292.16 430.863C1299.62 440.281 1305.94 450.406 1312.3 460.593C1313.01 461.728 1313.72 462.864 1314.43 464ZM764.765 464H766.49C831.158 455.174 907.135 441.319 996.49 421.427C1189.73 378.409 1240.9 416.746 1279.84 464H1280.3C1241.27 416.598 1190.08 378.082 996.334 421.214C906.242 441.269 829.761 455.185 764.765 464ZM705.106 464H707.687C785.038 456.96 882.01 441.037 1003.22 413.899H1003.22C1218.67 363.734 1260.73 411.342 1297.94 464H1298.38C1261.08 411.196 1219.02 363.402 1003.06 413.686C880.552 441.115 782.829 457.081 705.106 464ZM549.221 464H550.989C543.202 462.966 535.829 461.748 528.868 460.351C443.75 443.263 418.984 399.826 417.254 348.904V348.899C415.759 333.743 415.724 318.086 415.69 302.7C415.612 268.376 415.537 235.401 399.271 212.284C377.187 180.905 325.333 167.695 203.328 193.921C128.004 209.829 62.9077 172.201 0.00287999 130.144V130.507C62.9048 172.542 128.019 210.075 203.474 194.139C325.183 167.977 376.885 181.118 398.879 212.37C415.12 235.447 415.192 268.4 415.272 302.703C415.307 318.089 415.341 333.746 416.836 348.909C418.573 399.923 443.398 443.44 528.729 460.568C535.201 461.866 542.032 463.012 549.221 464ZM497.551 464H498.501C459.86 453.43 436.025 436.647 421.303 416.445C397.932 384.379 397.454 343.703 397.004 305.637C396.621 273.029 396.258 242.334 381.553 220.574C360.921 190.04 312.114 177.107 195.583 201.16C123.14 216.114 60.4021 182.223 0.00287999 142.431V142.791C60.3992 182.554 123.157 216.358 195.727 201.376C311.958 177.384 360.616 190.252 381.161 220.654C395.841 242.375 396.201 273.051 396.584 305.637C397.033 343.725 397.511 384.423 420.911 416.531C435.579 436.655 459.267 453.39 497.551 464ZM173.546 0.0015564C232.943 38.9052 294.16 69.4756 358.381 49.377C476.279 12.4783 565.081 -0.773346 630.497 0.980164C678.149 2.25952 713.386 11.5045 738.41 25.3735C763.438 39.2441 778.255 57.7421 785.072 77.5225C795.757 108.534 786.774 142.694 766.617 167.127C729.465 212.163 717.052 244.659 721.945 267.51C726.326 287.962 744.559 300.695 771.32 307.781C798.055 314.86 833.3 316.295 871.743 314.163C968.361 308.801 1085.22 280.881 1137.85 263.327C1288.03 213.237 1382.17 191.07 1440 187.109V186.896C1382.05 190.86 1287.82 213.037 1137.63 263.13C1085.04 280.673 968.251 308.575 871.699 313.932C833.329 316.062 798.159 314.631 771.502 307.572C744.867 300.522 726.723 287.846 722.36 267.485C717.476 244.672 729.877 212.219 766.994 167.224C787.183 142.753 796.18 108.538 785.478 77.481C778.647 57.6577 763.792 39.1169 738.704 25.2112C713.611 11.304 678.285 2.03354 630.517 0.751007C565.032 -1.00568 476.15 12.2539 358.176 49.1765C294.312 69.1638 233.308 38.7588 174.096 0.0015564H173.546Z" fill="white"/>
</g>
</mask>
<g mask="url(#mask0_46_186)">
<rect width="1440" height="256.61" transform="matrix(1 0 0 -1 0 256.61)" fill="url(#paint0_linear_46_186)"/>
</g>
<defs>
<linearGradient id="paint0_linear_46_186" x1="720" y1="0" x2="720" y2="256.61" gradientUnits="userSpaceOnUse">
<stop stop-color="#5F5F6F" stop-opacity="0"/>
<stop offset="0.519146" stop-color="#3F3F49"/>
<stop offset="1" stop-color="#222226"/>
</linearGradient>
</defs>
</svg>
