<svg width="100" height="100" viewBox="0 0 100 100" fill="none" xmlns="http://www.w3.org/2000/svg">
<path d="M73.8431 61.3689L75.9279 49.5372C76.0502 48.8437 76.0166 48.1324 75.8293 47.453C75.6421 46.7736 75.3057 46.1426 74.8438 45.604C74.3819 45.0654 73.8056 44.6322 73.1552 44.3348C72.5047 44.0375 71.7959 43.883 71.0783 43.8823H55.7575C55.4 43.8824 55.0467 43.8062 54.7222 43.6589C54.3978 43.5116 54.1099 43.2968 53.8786 43.0294C53.6473 42.762 53.4781 42.4484 53.3828 42.1105C53.2876 41.7725 53.2684 41.4182 53.3268 41.0723L55.2874 29.3421C55.6055 27.4375 55.5149 25.4888 55.0212 23.6205C54.81 22.8486 54.4032 22.1415 53.8386 21.5651C53.2741 20.9886 52.5701 20.5615 51.7921 20.3233L51.3633 20.187C50.3939 19.8816 49.3419 19.9522 48.424 20.3842C47.4185 20.8598 46.6852 21.7269 46.4131 22.7564L45.0056 28.0748C44.5574 29.7673 43.9063 31.4017 43.0657 32.9438C41.8385 35.1971 39.94 37.0037 37.9647 38.6712L33.7095 42.2671C33.1191 42.7674 32.6581 43.3977 32.3641 44.1064C32.07 44.8151 31.9515 45.5821 32.018 46.3444L34.4192 73.5834C34.525 74.7881 35.0876 75.91 35.9958 76.7277C36.9041 77.5454 38.092 77.9994 39.325 78H53.0695C63.3662 78 72.1517 70.9648 73.8431 61.3689Z" fill="url(#paint0_linear_34_138)"/>
<path fill-rule="evenodd" clip-rule="evenodd" d="M23.0317 42.0021C23.5786 41.9779 24.1135 42.1683 24.5247 42.5336C24.936 42.8988 25.1918 43.4107 25.2387 43.9622L27.9832 76.1143C28.0297 76.5931 27.9792 77.0765 27.8348 77.5349C27.6904 77.9933 27.4551 78.4171 27.1433 78.7804C26.8315 79.1438 26.4497 79.439 26.0213 79.6481C25.5929 79.8572 25.1269 79.9758 24.6516 79.9967C24.1763 80.0175 23.7019 79.9402 23.2572 79.7693C22.8125 79.5985 22.4069 79.3378 22.0652 79.0031C21.7234 78.6684 21.4528 78.2668 21.2697 77.8227C21.0866 77.3787 20.9949 76.9016 21.0002 76.4205V44.1453C21.0005 43.5922 21.2119 43.0604 21.5904 42.6611C21.9689 42.2618 22.4853 42.0257 23.0317 42.0021Z" fill="url(#paint1_linear_34_138)"/>
<defs>
<linearGradient id="paint0_linear_34_138" x1="32" y1="49" x2="76" y2="49" gradientUnits="userSpaceOnUse">
<stop stop-color="#807EEE"/>
<stop offset="1" stop-color="#4045C9"/>
</linearGradient>
<linearGradient id="paint1_linear_34_138" x1="21" y1="61" x2="28" y2="61" gradientUnits="userSpaceOnUse">
<stop stop-color="#807EEE"/>
<stop offset="1" stop-color="#4045C9"/>
</linearGradient>
</defs>
</svg>
