<svg width="100" height="100" viewBox="0 0 100 100" fill="none" xmlns="http://www.w3.org/2000/svg">
<path fill-rule="evenodd" clip-rule="evenodd" d="M52 20C48.658 20 45.613 21.8 39.529 25.406L37.471 26.624C31.381 30.23 28.342 32.033 26.671 35C25 37.97 25 41.57 25 48.782V51.218C25 58.427 25 62.033 26.671 65C28.342 67.97 31.381 69.77 37.471 73.373L39.529 74.594C45.613 78.197 48.658 80 52 80C55.342 80 58.384 78.2 64.471 74.594L66.529 73.373C72.613 69.773 75.658 67.967 77.329 65C79 62.03 79 58.43 79 51.218V48.782C79 41.573 79 37.967 77.329 35C75.658 32.03 72.613 30.23 66.529 26.624L64.471 25.406C58.381 21.803 55.342 20 52 20ZM40.75 50C40.75 47.0163 41.9353 44.1548 44.045 42.045C46.1548 39.9353 49.0163 38.75 52 38.75C54.9837 38.75 57.8452 39.9353 59.955 42.045C62.0647 44.1548 63.25 47.0163 63.25 50C63.25 52.9837 62.0647 55.8452 59.955 57.955C57.8452 60.0647 54.9837 61.25 52 61.25C49.0163 61.25 46.1548 60.0647 44.045 57.955C41.9353 55.8452 40.75 52.9837 40.75 50Z" fill="url(#paint0_linear_35_141)"/>
<defs>
<linearGradient id="paint0_linear_35_141" x1="25" y1="50" x2="79" y2="50" gradientUnits="userSpaceOnUse">
<stop stop-color="#807EEE"/>
<stop offset="1" stop-color="#4045C9"/>
</linearGradient>
</defs>
</svg>
