<svg width="28" height="28" viewBox="0 0 28 28" fill="none" xmlns="http://www.w3.org/2000/svg">
<path fill-rule="evenodd" clip-rule="evenodd" d="M11.6241 14.996L14.0013 16.4408L16.2928 15.0356L21.4294 19.5403C21.2942 19.5791 21.1497 19.6 20.9993 19.6H6.99989C6.81509 19.6 6.63869 19.5679 6.47657 19.5104L11.6241 14.996ZM22.3996 11.2941V18.3553C22.3996 18.5397 22.3542 18.7144 22.2736 18.872L17.2386 14.4562L22.3996 11.2941ZM5.59961 11.3336L10.6749 14.4189L5.68865 18.7928C5.62959 18.6529 5.59943 18.5047 5.59961 18.3553V11.3336ZM20.9993 8.39999C21.7721 8.39999 22.3996 8.95701 22.3996 9.64469V10.0822L13.9979 15.2305L5.59961 10.1248V9.64469C5.59961 8.95775 6.22625 8.39999 6.99989 8.39999H20.9993Z" fill="white"/>
</svg>
