<svg width="12" height="12" viewBox="0 0 12 12" fill="none" xmlns="http://www.w3.org/2000/svg">
<path d="M6.13229 2.11237e-05C4.04801 -0.00556026 2.21384 1.09537 1.16556 2.75862C1.11909 2.83257 1.17102 2.93025 1.25713 2.93025H2.21794C2.28355 2.93025 2.34505 2.90095 2.38605 2.84932C2.48172 2.73071 2.58423 2.6163 2.6922 2.50746C3.13776 2.05397 3.65575 1.69676 4.23252 1.44839C4.82842 1.19165 5.46258 1.06048 6.11725 1.06048C6.77192 1.06048 7.40609 1.19025 8.00198 1.44839C8.57875 1.69676 9.09674 2.05397 9.5423 2.50746C9.98786 2.96095 10.3364 3.48978 10.581 4.07722C10.8339 4.68559 10.961 5.33164 10.961 6.00001C10.961 6.66838 10.8325 7.31443 10.581 7.9228C10.3377 8.51024 9.98786 9.03907 9.5423 9.49256C9.09674 9.94605 8.57875 10.3033 8.00198 10.5516C7.40562 10.8088 6.76463 10.9407 6.11725 10.9395C5.46258 10.9395 4.82842 10.8084 4.23252 10.5516C3.65689 10.3035 3.13381 9.94386 2.6922 9.49256C2.58423 9.38233 2.48309 9.26791 2.38605 9.1507C2.34505 9.09907 2.28218 9.06977 2.21794 9.06977H1.25713C1.17102 9.06977 1.11772 9.16745 1.16556 9.2414C2.21248 10.9005 4.03844 12 6.11725 12C9.34549 12 11.9669 9.34745 11.9997 6.06141C12.0325 2.72234 9.40699 0.0083932 6.13229 2.11237e-05ZM4.4009 7.5628V6.50234H0.109339C0.0492026 6.50234 0 6.4521 0 6.39071V5.60931C0 5.54792 0.0492026 5.49769 0.109339 5.49769H4.4009V4.43722C4.4009 4.34373 4.50751 4.29071 4.57858 4.34932L6.51798 5.9121C6.53105 5.92255 6.54162 5.93589 6.54888 5.95112C6.55615 5.96635 6.55993 5.98307 6.55993 6.00001C6.55993 6.01695 6.55615 6.03367 6.54888 6.0489C6.54162 6.06413 6.53105 6.07748 6.51798 6.08792L4.57858 7.6507C4.50751 7.70791 4.4009 7.65629 4.4009 7.5628Z" fill="white"/>
</svg>
