<svg width="24" height="24" viewBox="0 0 24 24" fill="none" xmlns="http://www.w3.org/2000/svg">
<rect width="24" height="24" rx="4" fill="#363440"/>
<path d="M19 5C17.5841 5.09734 7.63692 6.04454 6.94156 12.8644C6.85707 13.5934 6.80922 14.3256 6.77777 15.0584L11.6688 10.1724C11.8397 10.0015 12.1172 10.0015 12.2881 10.1724C12.459 10.3433 12.459 10.6203 12.2881 10.7912L5.19237 17.8798C4.93588 18.136 4.93588 18.5516 5.19237 18.8078C5.44885 19.0641 5.86475 19.0641 6.12151 18.8078L7.68368 17.2473C8.83459 17.2435 9.98468 17.1781 11.1279 17.0461C12.5903 16.8973 13.7808 16.3223 14.7532 15.5001H11.9928L16.0067 14.1635C16.3143 13.7563 16.591 13.3238 16.8393 12.875H14.6206L17.5338 11.4201C18.6798 8.63291 18.9505 5.71805 19 5Z" fill="url(#paint0_linear_43_120)"/>
<defs>
<linearGradient id="paint0_linear_43_120" x1="5" y1="12" x2="19" y2="12" gradientUnits="userSpaceOnUse">
<stop stop-color="#807EEE"/>
<stop offset="1" stop-color="#4045C9"/>
</linearGradient>
</defs>
</svg>
